<?xml version="1.0" standalone="no"?>
<!DOCTYPE svg PUBLIC "-//W3C//DTD SVG 1.1//EN" "http://www.w3.org/Graphics/SVG/1.1/DTD/svg11.dtd" >
<svg xmlns="http://www.w3.org/2000/svg" xmlns:xlink="http://www.w3.org/1999/xlink" version="1.1">
<metadata></metadata>
<defs>
<font id="christmasevemedium" horiz-adv-x="516" >
<font-face units-per-em="2048" ascent="1638" descent="-410" />
<missing-glyph horiz-adv-x="614" />
<glyph horiz-adv-x="0" />
<glyph unicode="&#xd;" horiz-adv-x="681" />
<glyph unicode=" "  horiz-adv-x="614" />
<glyph unicode="&#x09;" horiz-adv-x="614" />
<glyph unicode="&#xa0;" horiz-adv-x="614" />
<glyph unicode="!" horiz-adv-x="378" d="M256 1328q0 50 8 91q2 12 11.5 18.5t20.5 4.5t17 -11.5t4 -19.5q-8 -39 -8 -85t3 -83t10 -92q6 -51 8 -86q29 -444 28 -623q0 -27 -26.5 -26.5t-26.5 26.5q0 190 -29 619q-2 29 -8 84t-9 94t-3 89zM286 60q-1 38 0 62.5t7 47.5q8 27 33.5 20t19.5 -32q-6 -20 -7 -40 t0 -53.5t1 -48.5q0 -27 -26.5 -26.5t-26.5 26.5q0 6 -1 44z" />
<glyph unicode="&#x22;" horiz-adv-x="507" d="M51 1260q0 86 15 155q6 25 31.5 20t21.5 -32q-14 -102 -14.5 -155.5t7 -163t7.5 -164.5q0 -27 -26.5 -27t-26.5 27q0 47 -7.5 150.5t-7.5 189.5zM428 1153q-2 164 6 270q0 10 9.5 17.5t19.5 7.5t17 -9.5t7 -19.5q-8 -104 -6 -266q2 -29 3 -84t2 -100t1 -84 q0 -27 -26.5 -27t-26.5 27q0 39 -1 84t-2 99t-3 85z" />
<glyph unicode="#" horiz-adv-x="880" d="M-8.5 958.5q0.5 26.5 26.5 26.5h218q2 102 6 195v106q0 100 8 113q6 25 31.5 19.5t21.5 -32.5q-8 -39 -8 -100v-110q-4 -90 -6 -193q35 0 152.5 -1t181.5 -1l-7 125q-2 27 -8 72q-8 66 -10 77q-10 100 10 158q8 27 33.5 18t15.5 -34q-16 -47 -6 -135q2 -8 11 -78 q6 -49 8 -74l6 -129h145q27 0 27 -26.5t-27 -26.5h-143q6 -133 24 -434q70 -4 136 -13q10 -2 17 -10t5 -19.5t-10 -18.5t-21 -5q-59 8 -124 12q12 -207 18 -338q0 -12 -7 -20t-18.5 -8t-19.5 7t-8 17q-6 133 -19 344q-123 6 -346 2q8 -219 8 -356q0 -27 -26.5 -27t-26.5 27 q0 137 -8 356q-109 -2 -172 -2q-27 0 -27 27t27 27q61 0 170 2l-6 133q-6 178 -8 301h-218q-27 0 -26.5 26.5zM289 930q2 -119 8 -297l6 -135q221 4 346 -2q-18 299 -24 432q-63 0 -182 1t-154 1z" />
<glyph unicode="$" horiz-adv-x="948" d="M98 248q-70 135 31 252q18 18 37.5 0.5t3.5 -37.5q-78 -88 -25 -193q51 -100 189 -174q72 -39 149 -55q0 70 4.5 201t4.5 166q2 119 2 297l-9 4q-193 96 -237 129q-113 84 -113 190q0 141 98.5 230.5t237.5 105.5q-2 96 10 168q2 12 11.5 18t20.5 4t17.5 -11t4.5 -19 q-12 -63 -11 -156q129 2 235.5 -59.5t141.5 -182.5q8 -27 -17.5 -34t-31.5 18q-31 100 -121 153.5t-205 51.5q2 -20 2 -45q16 -233 17 -264q0 -41 2 -269q70 -37 121 -69.5t107 -80.5t92 -108.5t51 -132.5q31 -164 -31 -244q-117 -152 -348 -125q2 -82 12 -161 q2 -12 -5 -20.5t-18.5 -10.5t-19.5 5t-10 17q-10 88 -13 179q-92 18 -176 63q-154 82 -211 199zM188 1028q0 -80 93 -147q51 -37 213 -117q-2 182 -2 242q0 29 -17 262q0 23 -2 43q-121 -16 -203 -91t-82 -192zM537 31q207 -27 309 104q47 61 18 199q-23 115 -103.5 193.5 t-213.5 148.5q0 -158 -2 -268q0 -35 -4 -170.5t-4 -206.5z" />
<glyph unicode="%" horiz-adv-x="1568" d="M175 1002.5q5 54.5 30 103.5q39 80 104 111q8 4 21 8q12 16 30 8l7 -2q45 0 84 -33q20 -16 4 -37q0 -2 -2 -2q59 -68 84 -149q27 -80 0 -140q-29 -70 -121 -86q-80 -14 -144 23q-55 33 -78.5 87t-18.5 108.5zM229.5 954.5q10.5 -67.5 71.5 -102.5q43 -25 106.5 -14.5 t81.5 53.5q16 41 -2 104q-18 55 -55 105.5t-78 75.5q-10 -2 -22 -9q-49 -23 -80 -84q-33 -61 -22.5 -128.5zM438 -31l262 500l203 401l88 156q63 109 103.5 190.5t64.5 161.5q6 25 31.5 18t17.5 -34q-25 -84 -65 -166q-43 -86 -106.5 -196.5t-84.5 -153.5l-207 -402 q-166 -328 -262 -499q-12 -25 -35.5 -11.5t-9.5 35.5zM1090 315q-2 92 46 161t121 99q63 31 135 15.5t101 -80.5q6 -13 -2 -25q33 -37 47 -79q33 -92 -18 -187q-31 -57 -83.5 -95t-117 -44t-127.5 37q-100 70 -102 198zM1143 315q2 -100 78 -153q72 -45 141.5 -18.5 t110.5 100.5q39 76 16 145q-29 80 -137 121q-21 8 -17 31q-29 -2 -57 -15q-59 -25 -98 -80t-37 -131z" />
<glyph unicode="&#x26;" horiz-adv-x="1005" d="M311 594q-4 74 42 132t122 95q-16 2 -33 6q-55 16 -84 45q-39 39 -30 99q10 80 82.5 124t167.5 46q92 2 172 -35q82 -39 112 -115q10 -25 -14.5 -35t-34.5 15q-23 57 -88.5 88t-146 28.5t-135 -36t-62.5 -88.5q-4 -33 14 -54q20 -18 62 -30q45 -12 147 -17q96 16 168 -8 q2 0 4 -2q10 -2 15 -14q6 -14 -5 -27q-6 -6 -12 -8q-2 0 -6 -1t-12 -1q-4 2 -8 2h-7h-6q-49 0 -110 4q-6 0 -19 2q-55 -12 -104 -35q-66 -31 -104 -77t-33 -99q6 -90 81 -135q76 -43 189 -37q109 6 194 55q88 47 103 115q6 27 32.5 20.5t20.5 -32.5q-23 -90 -129 -150 q-96 -53 -219 -61q-80 -4 -148.5 15.5t-120 71.5t-57.5 134zM623 1423q-2 12 5 20.5t18 10.5t19.5 -5t10.5 -17q4 -25 10 -99q6 -61 12 -96q2 -10 -4 -19.5t-17 -11.5t-20.5 4.5t-11.5 18.5q-6 37 -12 98q-6 74 -10 96zM645 297q0 12 7 20.5t18.5 8.5t19.5 -7.5t8 -17.5 q2 -45 19 -123q18 -92 22 -131q0 -10 -6 -18.5t-17 -9.5t-19.5 5.5t-10.5 18.5q-2 25 -22 123q-16 82 -19 131z" />
<glyph unicode="'" horiz-adv-x="305" d="M168 1407q2 12 11 18.5t20.5 4t17.5 -11.5t4 -19q-10 -53 21 -228l26 -139q12 -78 17 -121q0 -10 -7.5 -19t-17.5 -9t-19.5 7t-9.5 17q-2 39 -16 115l-25 141q-33 186 -22 244z" />
<glyph unicode="(" horiz-adv-x="559" d="M207.5 302q17.5 -169 98.5 -342t226 -331q16 -20 -3 -37.5t-37 0.5q-676 739 -13 1794q14 23 36.5 9t8.5 -37q-115 -182 -189.5 -353t-109.5 -352.5t-17.5 -350.5z" />
<glyph unicode=")" horiz-adv-x="460" d="M37 -371q256 313 325.5 683t-59.5 755q-43 123 -93 207t-130 135q-23 14 -8.5 36.5t37.5 8.5q92 -57 145 -149.5t98 -221.5q135 -399 62 -780q-72 -379 -336 -706q-16 -20 -37 -4t-4 36z" />
<glyph unicode="*" horiz-adv-x="645" d="M113 1236.5q16 20.5 37 4.5q55 -41 165 -72q-2 23 -4 52q-2 33 -2 84q2 74 2 77q0 27 27 27t27 -27q0 -6 -3 -79q0 -49 3 -80q0 -25 4 -45q31 14 73 32q25 10 54.5 20.5t56.5 21t35 12.5q27 10 36 -16t-16 -34q-10 -4 -36.5 -13t-55.5 -21l-53 -21q-47 -18 -76 -33h-2 q8 -20 18 -34l70 -86l12 -13q23 6 31 -16q4 -8 4 -14q4 -10 2 -19q-4 -12 -12 -18q-10 -6 -21 -4q-8 2 -16 8q-12 8 -41 41l-70 88q-12 14 -20 33q-16 -23 -43 -72q-35 -66 -53 -90q-16 -23 -38 -7.5t-7 35.5q16 25 51 86q27 49 45 76q-119 31 -180 80q-20 16 -4 36.5z" />
<glyph unicode="+" horiz-adv-x="993" d="M100 516q0 27 27 27q135 0 383 6q10 285 10 434q0 27 26.5 27t26.5 -27q0 -150 -10 -434q248 6 383 6q27 0 27 -26.5t-27 -26.5q-135 0 -385 -6q-8 -264 -8 -412q0 -27 -26.5 -27t-26.5 27q0 148 8 412q-246 -6 -381 -7q-27 0 -27 27z" />
<glyph unicode="," horiz-adv-x="319" d="M170 -221q70 70 77 164t-57 170q-16 18 3.5 35t37.5 -3q78 -94 69 -206.5t-93 -196.5q-18 -18 -36.5 0t-0.5 37z" />
<glyph unicode="-" d="M32 563.5q0 26.5 27 26.5q70 0 207 -8q135 -6 203 -7q27 0 27 -26.5t-27 -26.5q-70 0 -207 8q-135 6 -203 7q-27 0 -27 26.5z" />
<glyph unicode="." horiz-adv-x="264" d="M190 82q0 27 27 27t27 -27t-27 -27t-27 27z" />
<glyph unicode="/" horiz-adv-x="577" d="M-6 43l262 659q20 51 72 205q45 137 71 209q10 31 39 92q27 61 43.5 107.5t22.5 91.5q2 10 11 17.5t19.5 5t17.5 -11.5t5 -19q-8 -47 -25.5 -98.5t-46 -116t-36.5 -88.5q-23 -59 -70 -205q-45 -139 -74 -209q-166 -403 -262 -659q-8 -25 -33.5 -16t-15.5 36z" />
<glyph unicode="0" horiz-adv-x="952" d="M115 659q6 283 106 484q115 229 305 229q27 1 27 -26q158 -45 258 -220q113 -195 121 -462q8 -270 -94 -463q-117 -221 -332 -234q-197 -12 -303 213q-92 195 -88 479zM169 657.5q-5 -272.5 81 -454.5q92 -193 252 -183q186 10 289 205q96 182 87.5 438.5t-112.5 436.5 q-115 195 -295 205q-6 0 -12 4q-113 -37 -191 -191q-94 -188 -99 -460.5z" />
<glyph unicode="1" horiz-adv-x="632" d="M540 705.5q-1 130.5 4 316.5t15 344q0 10 8 17.5t19.5 7.5t18.5 -8.5t7 -20.5q-10 -156 -15 -342t-4 -316.5t2 -350.5t1 -326q0 -27 -26.5 -27t-26.5 27q0 104 -1 326t-2 352.5z" />
<glyph unicode="2" horiz-adv-x="952" d="M127 92q4 8 4 10q20 96 55 170t99 154q12 18 26.5 34.5t32.5 35.5l31 28q12 12 35.5 31.5t33 28t35.5 28.5l37 27q6 4 37 27.5t35 25.5q98 76 163.5 135.5t110.5 130.5q18 33 17.5 79t-17.5 85q-31 80 -99.5 122t-147 42t-166.5 -24q-131 -39 -209 -119q-76 -78 -56 -150 q8 -27 -17.5 -34t-31.5 18q-33 102 68 205q88 88 229 131q70 23 139.5 25.5t136 -13.5t121 -62t82.5 -120q20 -49 21.5 -104.5t-25.5 -108.5q-49 -78 -117.5 -140.5t-171.5 -140.5q-4 -4 -30 -22l-35 -25q-6 -6 -29 -24l-32 -25q-8 -6 -30 -23.5t-31 -26.5t-26.5 -24.5 t-27.5 -27.5l-25 -29l-26 -29q-59 -76 -91 -144.5t-51 -158.5q14 0 37 -2q47 -2 135 0q39 0 93.5 1t87.5 1h45q47 -2 155 2q119 4 160 4q27 0 27 -26.5t-27 -26.5q-39 0 -158 -4q-111 -4 -161 -2h-41q-33 0 -87.5 -1t-93.5 -1q-88 -2 -137 0q-31 2 -49 4q-10 0 -16 2 q-12 2 -21 8q-18 16 -6 43z" />
<glyph unicode="3" horiz-adv-x="966" d="M103.5 283.5q-15.5 76.5 7.5 173.5q8 25 33.5 17.5t19.5 -34.5q-43 -147 43 -253.5t242 -143.5q154 -35 280 18q129 51 156 181q16 76 0 164q-14 86 -60 159q-45 76 -111.5 118t-146.5 38l-37 -8q-2 0 -12 -2l-18 -6q-12 -2 -21 -3q-4 0 -10 3q-12 6 -16 20q-2 10 4 20 q2 4 6 7q6 6 14 8l12 4q10 2 27 4q25 4 43 6q70 18 135 53q96 55 127 141.5t-14 184.5q-35 78 -119 110.5t-190 22.5q-102 -10 -188.5 -57t-119.5 -117q-12 -23 -35.5 -11.5t-13.5 36.5q43 84 140.5 137t212.5 65q117 12 217 -27.5t145 -133.5q53 -123 15.5 -227.5 t-152.5 -168.5q-20 -12 -43 -22q119 -41 196 -168q49 -80 66.5 -177.5t-0.5 -185.5q-18 -80 -70.5 -137t-122 -81.5t-151.5 -32t-158 13.5q-80 18 -147.5 56t-118.5 98.5t-66.5 137z" />
<glyph unicode="4" horiz-adv-x="974" d="M49 408v2q0 14 12 22q76 109 232 316l227 309q111 158 139 227v19q0 27 27 26q25 0 27 -24q6 -10 2 -23l-2 -8q0 -121 -8 -830q125 2 223 2q27 0 26.5 -26.5t-26.5 -26.5q-98 0 -226 -2q-2 -207 -2 -366q0 -27 -26.5 -27t-26.5 27q0 157 2 366q-475 -8 -559 -8 q-14 -10 -28.5 0t-12.5 25zM129 436q61 0 522 8q8 670 8 723q-25 -39 -94 -139z" />
<glyph unicode="5" horiz-adv-x="962" d="M61 371q-2 10 5.5 19t17.5 11t19.5 -5t11.5 -17q0 -6 4 -36t6 -39t6 -32.5t8 -36t11.5 -30t15.5 -29.5q57 -92 173 -124t232 3q125 31 213 111t101 184q27 229 -99 352q-123 121 -354 105q-92 -6 -160 -33q-2 0 -20 -18q-12 -10 -23 -15q-23 -8 -40 6.5t-11 40.5 q0 6 2 11v2v192q-2 51 -2 150v92v33q0 6 2 10v4q0 4 2 6q2 6 8 10q4 4 11 7h4q2 0 8 2h18q18 2 54 2l90 2q80 6 243.5 20.5t245.5 20.5q12 0 20.5 -7.5t8.5 -18.5t-7.5 -19.5t-17.5 -8.5q-84 -6 -246.5 -20t-242.5 -21q-2 0 -92 -2q-35 0 -54 -2h-2v-18v-92q0 -96 2 -150 v-182q10 8 19 12q76 31 176 37q256 16 395 -121q145 -141 115 -397q-14 -123 -115.5 -213t-236.5 -125q-90 -20 -176 -17t-165 45t-124 115q-10 16 -18.5 37t-13.5 36.5t-10 41t-7 36.5t-5.5 39t-5.5 34z" />
<glyph unicode="6" horiz-adv-x="997" d="M37 569q-12 188 33 374.5t131 303.5q94 127 259 156t298 -62q20 -14 38.5 -36.5t28 -40t22.5 -47t19 -37.5q12 -25 -12.5 -37.5t-36.5 12.5q-6 14 -19.5 42t-20.5 41t-20.5 30.5t-27.5 27.5q-117 78 -261 53.5t-226 -135.5q-76 -104 -119 -278t-35 -352q25 51 66 100 q152 193 358 178q178 -10 319 -162q139 -150 146 -327q6 -203 -172 -324q-80 -53 -204 -65.5t-214 20.5q-238 76 -319 373q-20 6 -21 26q0 27 4 52q-10 55 -14 114zM104 455q29 -150 104 -256.5t195 -145.5q82 -27 193 -16.5t180 57.5q154 102 148 277q-4 158 -131 293 q-127 137 -285 147q-178 10 -313 -160q-77 -96 -91 -196z" />
<glyph unicode="7" horiz-adv-x="999" d="M45 1273q2 11 10 18t21 5q37 -4 98 -2q84 4 107 4q121 -2 344 5.5t315 7.5q8 0 14 -4q4 0 9 -2q24 -10 14 -35q-31 -68 -100 -160q-92 -123 -109 -147q-377 -592 -451 -947q-6 -25 -31.5 -19.5t-21.5 32.5q78 362 459 962q18 29 111 150q51 70 77 116q-78 0 -295 -7 t-335 -5q-23 0 -103 -4q-68 -2 -110 2q-10 2 -17.5 10.5t-5.5 19.5z" />
<glyph unicode="8" horiz-adv-x="856" d="M160 1118q-6 109 69.5 180.5t182.5 92.5q141 29 235 -37q0 16 -4 28q-8 27 17.5 34t31.5 -17q14 -41 8 -99q18 -29 27 -61q6 -25 -20 -33q-13 -2 -23 6q-6 -18 -12 -41q-35 -100 -119 -278l-68 -137q143 -129 224 -232q104 -133 122 -241q25 -139 -83 -238 q-121 -106 -279 -84q-133 18 -176 168q-33 109 -12 244q18 117 139 370q-100 90 -119 111q-66 63 -101.5 124.5t-39.5 139.5zM213 1122q4 -66 35 -119t90 -112q18 -18 106 -98l60 122q84 176 117 273q16 55 24 96q-35 41 -95.5 55.5t-127.5 -0.5q-92 -18 -152.5 -76.5 t-56.5 -140.5zM334 365q-18 -123 10 -220q33 -117 133 -131q133 -18 234 72q88 78 69 186q-16 96 -114 220q-74 94 -205 215q-111 -233 -127 -342z" />
<glyph unicode="9" horiz-adv-x="923" d="M59 926q4 233 129 354q133 123 365 94q203 -27 295 -162q25 -35 37 -94q14 -80 16 -86q6 -20 -10 -31v-12q6 -115 6 -233v-301q-8 -276 -43 -445q-6 -25 -31.5 -19.5t-21.5 32.5q35 162 43 432v301q0 94 -4 196q-20 -72 -58 -135q-53 -96 -142 -166.5t-189 -95.5 q-109 -27 -205 16t-156 164q-33 68 -31 191zM113 926q-2 -111 26 -166q51 -104 129 -140t170 -14q88 23 169 87.5t130 148.5q57 104 68 211q4 41 4 47q2 20 4 33q2 8 4 12q0 4 2 8q-6 16 -16 31q-78 115 -258 137q-207 27 -320 -80q-109 -104 -112 -315z" />
<glyph unicode=":" horiz-adv-x="385" d="M287 936q0 27 26.5 27t26.5 -27t-26.5 -27t-26.5 27zM311 110.5q0 26.5 27 26.5t27 -26.5t-27 -26.5t-27 26.5z" />
<glyph unicode=";" horiz-adv-x="391" d="M197.5 -248.5q-15.5 21.5 5.5 37.5q111 80 116 150q2 23 -6 55.5t-17 58t-34 84.5q-10 25 14.5 35.5t34.5 -14.5q2 -6 6 -17q59 -147 56 -207q-8 -94 -137 -190q-23 -14 -38.5 7.5zM231 907.5q0 26.5 27 26.5t27 -26.5t-27 -26.5t-27 26.5z" />
<glyph unicode="&#x3c;" horiz-adv-x="1128" d="M90 479q-6 14 2 27q2 2 4 6q2 0 4 2l2 2h4l9 6l28 13l56 28q182 92 465 221q16 8 204 109q154 82 207 94q27 6 33 -20.5t-21 -32.5q-47 -10 -192 -88q-195 -104 -211 -111q-281 -129 -461 -221l-55 -27q33 -18 94 -49l289 -139l309 -147q160 -76 197 -99 q23 -12 9.5 -35.5t-38.5 -9.5q-39 23 -192 96l-308 148l-290 139q-61 31 -97 51l-28 17q-6 4 -11 8q-8 6 -12 12z" />
<glyph unicode="=" horiz-adv-x="1060" d="M45 708.5q0 26.5 27 26.5q125 0 473 -20q313 -18 469 -19q27 0 26.5 -26.5t-26.5 -26.5q-125 0 -473 21q-313 18 -469 18q-27 0 -27 26.5zM75 299q0 27 27 27q272 0 572 -17q41 -2 155 -16q94 -10 152 -10q27 0 27 -27t-27 -27q-59 0 -158 13q-113 12 -153 14 q-299 16 -568 16q-27 0 -27 27z" />
<glyph unicode="&#x3e;" horiz-adv-x="1101" d="M-32 158.5q-11 23.5 12 36.5q248 123 733 239q12 2 180 35l76 14l-58 27l-141 61l-360 158q-270 115 -416 182q-23 12 -12 36t36 14q143 -68 412 -183l361 -157l143 -64l90 -39l31 -14l8 -2l4 -2h2q0 -2 2 -2q0 -2 2 -4q6 -4 8 -12.5t0 -14.5l-6 -10l-4 -2q-2 -2 -6 -4 h-2q-2 -2 -4 -2q-4 -2 -12 -3q-10 -4 -35 -8l-109 -20q-168 -33 -178 -37q-479 -115 -721 -236q-25 -10 -36 13.5z" />
<glyph unicode="?" horiz-adv-x="935" d="M143 1038q-41 82 68 168q90 74 233 111q152 39 273 10q147 -35 190 -162q33 -92 -53 -200q-16 -20 -41 -46t-43 -42l-51 -46q-35 -33 -47 -45q-119 -109 -164 -197.5t6 -191.5q10 -25 -13.5 -36t-35.5 12q-27 55 -29 109.5t11.5 97.5t47 91t64.5 80.5t78 75.5 q12 12 47 43l51 48q16 14 39 36l39 43q68 86 45 152q-35 98 -153 127q-106 25 -248 -10q-131 -35 -213 -101q-74 -59 -51 -102q10 -25 -14 -36.5t-36 11.5zM498 174q0 27 26.5 27t26.5 -27q0 -20 4 -40.5t14 -47.5q8 -29 13 -47q6 -27 -20.5 -33t-33.5 21q-2 10 -11 40.5 t-14 56.5t-5 50z" />
<glyph unicode="@" horiz-adv-x="1628" d="M276 670q6 285 125 463q115 174 326 247.5t420 36.5q104 -18 191 -64t152.5 -117t96.5 -173t17 -225q-6 -53 -34 -137.5t-69 -155.5q-49 -90 -106 -131q-74 -53 -150 -25q-80 29 -104 121q-12 53 -8 133q-78 -102 -179 -168q-102 -63 -215 -55q-123 8 -166 102 q-47 100 35 289q72 164 166 227q88 59 236 41q160 -20 200 -125q25 -63 0 -196q-2 -10 -8 -15q-12 -63 -14 -88q-6 -84 6 -133q16 -63 68 -84q51 -18 102 19q47 35 90 112q39 68 66 148q25 78 30 129q27 213 -92 348t-319 170q-197 35 -392.5 -33.5t-300.5 -226.5 q-111 -166 -116 -434q-6 -238 84 -385.5t248 -202.5q150 -55 338 -20.5t368 151.5l29 18q20 14 27.5 18.5t24.5 17t26 20.5l20 16q12 12 21.5 24.5t17.5 24.5q14 23 36.5 8.5t8.5 -36.5q-12 -18 -27.5 -36t-25.5 -28t-33 -27.5t-29 -21.5t-35.5 -22.5t-31.5 -20.5 q-188 -123 -388 -160t-366 23q-174 63 -274 225q-98 162 -93 414zM623 543q29 -63 120 -70q111 -8 215 72q104 78 177 194q2 2 6 27q6 29 24 41q10 88 -4 127q-29 76 -160 92q-125 16 -198 -33q-80 -53 -146 -202q-72 -166 -34 -248z" />
<glyph unicode="A" horiz-adv-x="1517" d="M78 23q119 508 504 1292q-10 2 -15 12q-6 -2 -12 -2q-27 0 -27 27v8q-16 0 -20 10h-10q-27 0 -27 27q0 14 8 22q-16 4 -16 25v6q-8 8 -8 23q0 8 2 12q-8 8 -8 22q0 27 26 27q4 20 27 20q12 0 18 -6q14 12 29 15q8 8 22 8q10 0 17 -4q27 0 26 -27v-2v-2q6 12 25 12h4 q58 111 204 111h5q133 -4 219 -88q127 -121 180 -371q8 -39 22.5 -123t29.5 -145q10 -41 22 -78h8h2q6 12 25 12q10 0 16 -4q8 6 21 6q20 0 24 -14q25 -2 25 -27v-2q6 2 12 2q27 0 27 -26q0 -8 -2 -15q14 -4 14 -24q0 -27 -27 -27h-8q16 -4 17 -24q0 -18 -13 -25q2 -4 2 -12 q0 -27 -26 -27h-8q0 -27 -27 -26q-16 0 -23 10q-6 -4 -16 -4q-12 0 -18 6q-6 -2 -13 -2q-20 0 -24 16h-8q-27 0 -27 27q0 10 4 16q-23 2 -22 27q0 18 12 24q-16 4 -17 25q0 20 17 27q-20 35 -47 88q-29 59 -86.5 202.5t-79.5 188.5q-20 39 -37 61q-14 20 -25 25 q-20 8 -59 -17q-25 -14 -35 -18q2 -6 2 -12q0 -10 -4 -17q8 -6 8 -20q0 -20 -16 -25v-6q0 -27 -27 -26q-8 0 -12 2q-8 -10 -16 -17q-2 -25 -27 -24q-20 0 -25 16h-2h-2q197 -463 365 -1161q6 -27 -20.5 -33t-32.5 20q-61 258 -121 469q-119 0 -352.5 -8t-350.5 -8 q-88 -244 -139 -463q-6 -27 -32.5 -20.5t-20.5 33.5zM291 526q109 0 331 8.5t334 8.5q-117 389 -251 696h-3q-27 0 -26 27q0 6 2 10q-6 -2 -12 -2q-27 0 -27 26q0 10 4 17h-2q-225 -455 -350 -791zM678 1511q4 -6 4 -16v-6l2 -2q6 12 25 12q27 0 26 -26q0 -10 -4 -17 q6 0 10 -4q4 4 9 6q8 6 20 6q27 0 27 -26v-8h6q27 0 26 -27q0 -8 -2 -14q8 -2 17 -7q8 8 22 9q20 0 25 -15l20 13q40 24 74 24q17 0 33 -6q25 -8 47 -43q20 -25 41 -68q29 -55 82 -192l49 -121q-4 29 -17.5 99.5t-21.5 107.5q-49 233 -164 344q-72 68 -184 72h-5 q-111 0 -157 -82q-4 -9 -10 -13z" />
<glyph unicode="B" horiz-adv-x="1009" d="M186 1403q0 27 27 27t27 -27v-119q47 47 118.5 79t145.5 40q28 4 53 4q69 0 115 -29q55 -37 55 -103q0 -25 -8 -54q-14 -53 -56 -115t-69 -90l-90 -92q83 28 155 28q64 0 119 -22q140 -55 186 -168q27 -66 27 -139q0 -52 -14 -107q-31 -121 -113 -229q-84 -109 -186 -164 q-86 -47 -180 -62q-94 -12 -222 -12q-4 0 -8 2v-8q0 -27 -26.5 -27t-26.5 27q0 225 -14.5 679t-14.5 681zM242 1190q2 -152 10 -404q8 4 18 11q12 8 17 12l35 22q2 49 22 72q17 16 40 16q16 0 36 -8q4 4 8 11l68 69q55 55 76.5 82t52 74t41.5 86q6 22 6 40q0 40 -31 60 q-32 22 -89 22q-20 0 -42 -3q-88 -12 -167 -57.5t-99 -100.5q0 -2 -2 -4zM254 702q12 -395 14 -602q4 2 8 2q123 0 211 12.5t166 53.5q92 51 168 151.5t103 208.5q14 52 14 99q0 61 -22 113q-39 94 -158 141q-45 18 -98 18q-86 0 -191 -47q10 -27 18 -66l11 -67l2 -4l22 4 q10 2 19.5 -4t11.5 -17.5t-4 -19.5q2 -6 2 -10v-6q53 -23 82 -68q31 -50 31 -91q0 -46 -37 -75q-40 -34 -100 -34q-23 0 -50 5q-100 18 -121 90q-5 16 -5 32q0 53 57 112q-6 8 -7 20q0 6 5 13q-2 2 -3 4q-2 10 4.5 19t18.5 11l20 5v6q-6 41 -12 65q-6 33 -12 51l-29 -14 l-18 -16q2 -37 12 -78q4 -27 -21.5 -32t-31.5 20l-8 47l-9 -6q-23 -20 -38 -31q-10 -6 -15 -10q-6 -2 -10 -5zM406 506q2 -8 6 -12q33 78 34 102q-42 -44 -42 -76q0 -7 2 -14zM438 469q10 -6 21 -10q0 6 2 10q10 16 16 35.5t9 33t6 40.5q2 16 4 26q-6 -2 -15 -2h-2v-2 q0 -18 -5 -36.5t-11 -31.5l-12 -32q-8 -20 -13 -29v-2zM487 451q16 -2 33 -2q18 20 29 65q12 63 18 78q-14 10 -37 20q-2 -12 -5 -38.5t-6 -42t-11 -38t-19 -40.5q0 -2 -2 -2zM563 453q18 6 31 16q14 12 16 31q0 24 -18 59q-4 -8 -7 -28.5t-5 -24.5q-6 -33 -17 -53z" />
<glyph unicode="C" horiz-adv-x="1052" d="M154 680q14 186 73 358q31 92 72 164q43 74 99 134q58 58 132 86q55 20 114 21q22 0 44 -3q94 -12 154.5 -69.5t113.5 -151.5q14 -23 -9.5 -36.5t-35.5 11.5q-49 86 -101 134t-130 58q-20 3 -40 3q-110 0 -198 -86q-102 -101 -166 -281q-57 -164 -69 -346q-3 -53 -3 -98 q0 -114 21 -187q33 -109 86 -186q53 -76 113.5 -111t129.5 -44q20 -3 40 -3q48 0 92 16q137 45 224 191q69 116 69 267q0 38 -4 79q-2 10 5 18.5t18.5 10.5t19.5 -5.5t10 -19.5q5 -45 5 -87q-1 -163 -77 -292q-96 -162 -254 -211q-54 -21 -111 -21q-23 -1 -45 3 q-80 12 -149 52t-128.5 125t-92.5 202q-26 82 -26 202q0 48 4 103zM420 143.5q0 10.5 9 17.5t20 7h12h4q12 2 24 2q-2 23 -4 55q-4 -4 -10 -4q-16 0 -16 17q0 51 4 75q2 12 14 15q-4 46 -4 85t4 70q-6 8 -6 17q0 25 25 26q-11 21 -11 46q0 20 7 44q6 20 20 54l23 45q2 6 8 8 q2 10 12 14q14 4 20 -12q2 -6 8.5 -26.5t9.5 -28.5t7 -26.5t5 -30t1 -28t-4 -30.5t-12 -29h2q25 0 26 -24q6 -4 9 -13l4 -28q4 -4 6 -8q6 -12 14 -45q4 -23 13 -35q10 -14 -2 -23q-8 -6 -19 -2q4 -57 4 -160q10 10 23 9q10 -2 17 -11.5t5 -19.5q-2 -6 -2 -19q0 -6 -2 -8 q-2 -12 -8 -18q-2 0 -2 -2q-6 -8 -14 -13q-4 -2 -9 -2q-7 -1 -23 -1t-42 1q-31 2 -146 11q-10 0 -17 9t-7 19.5zM522 606q-5 -17 -5 -31q0 -28 20 -47v-2h16q16 25 18 51.5t-2 48t-14 56.5l-12 -27q-14 -33 -21 -49zM527 376q1 -28 8 -99.5t8 -102.5h20q18 2 31 2 q-1 199 -19 297h-47q-1 -47 -1 -74v-23z" />
<glyph unicode="D" horiz-adv-x="1116" d="M176 1403q0 23 21 27q6 2 12 2t10 -2q250 -6 477 -154q225 -147 332 -361q70 -139 70 -269q0 -87 -31 -169q-88 -231 -401 -360q-223 -92 -394 -101q-8 -10 -22 -10q-10 0 -17.5 8.5t-7.5 20.5q5 88 5 198q0 204 -17 484q-31 498 -31 669q-6 6 -6 17zM236 1376 q2 -166 30 -655q18 -295 18 -501q0 -82 -3 -150q156 10 364 96q293 121 371 330q28 74 28 152q0 117 -63 245q-98 195 -306 334t-439 149zM311 838q-4 32 -4 60q0 70 25 114q37 61 108 61h6q54 1 115 -33q64 -36 117 -96q4 -2 8 -8l4 -8l2 -2q4 -4 6 -11q14 -31 15 -53 q-2 -41 -39 -51q-9 -2 -18 -2q-33 0 -70 29q-11 2 -17 8q-23 29 -39 41q-25 23 -36 24q-25 4 -31 -3t-4 -29q6 -55 63 -164q74 -143 189 -299q8 -12 2 -27q4 -8 2 -14q-12 -68 -58 -74h-7q-30 0 -75 29q-8 6 -12 16q-45 63 -139 242q-49 90 -74 147q-35 74 -39 103zM360 874 q23 -2 48 -8q-2 4 -2 6q-2 20 2 37q-12 10 -29 27l-14 14q-5 -26 -5 -57v-19zM365 842q6 -23 30 -78h2q16 -4 45 -8q-18 41 -26 73q-26 9 -51 13zM377 983l24 -25q12 -10 19 -16l4 4q4 2 8 6q0 2 -2 4q-12 41 -18 58q-20 -8 -33 -29zM412 727l34 -70q2 0 52 -10l-23 43 l-14 27zM444 1020l19 -55q16 2 35 0q0 8 -1 23.5t-1 21.5q-29 10 -52 10zM467 621l4 -9l35 -63q14 -2 57 -10l-43 71q-14 2 -53 11zM526 512l41 -72q2 2 4 2q25 4 54 2l-39 58q-12 2 -34 6t-26 4zM530 954q16 -10 37 -26q10 -10 21 -23q4 0 8 -2q4 20 0 47q-31 27 -66 45 v-41zM586 412q14 -25 24 -37q0 -2 2 -4q29 -18 37 -17q10 16 13 29q0 4 2 6l-15 21q-39 6 -63 2zM621 877q23 -14 38 -13q0 12 -12 35q-8 8 -16 19q-2 -21 -10 -41z" />
<glyph unicode="E" horiz-adv-x="1142" d="M201 31q4 47 4 120q0 49 -2 109q-3 111 -3 177q0 33 1 55q4 137 4 283.5t-1 343t-1 282.5q0 27 26 26q12 0 21 -8q162 -12 344 -14q2 6 6 12q14 29 39 39q9 3 17 3q23 0 46 -19q14 -14 21 -35q170 0 360 6q10 0 18.5 -7t8.5 -18.5t-7 -19.5t-20 -8q-186 -6 -354 -6 q0 -14 -2 -33q0 -18 -6 -59v-7q14 -8 14 -24q0 -10 -6 -19q60 -37 60 -109q0 -8 -1 -16q-4 -51 -38 -87q-27 -30 -68 -30q-9 0 -18 1q-49 8 -77 51t-28 94q0 53 27 88q16 18 37 27v8q2 10 10 17.5t20 5.5l15 -3v9q6 41 8 57v29h-43q-2 -14 -2 -23q0 -27 -26.5 -26.5 t-26.5 26.5q0 10 2 23q-170 4 -324 12q0 -66 1 -261.5t1 -301.5q63 -2 149 -1q107 0 251 2q260 5 343 5q27 0 27 -26.5t-27 -26.5q-84 0 -343 -6q-136 -3 -239 -2q-94 0 -161 2q-2 -139 -4 -256q-1 -19 -1 -51q0 -64 3 -181q2 -68 2 -117.5t-2 -79.5h6q67 -2 158 -2 q124 -1 292 3q290 6 384 6q27 0 26.5 -27t-26.5 -27q-94 0 -385 -5q-162 -3 -282 -3q-96 0 -167 2q-6 0 -12 4q-10 -12 -25 -12q-10 0 -17 9t-7 20zM612 1106q2 -16 6 -33q20 16 58 21q20 2 59 2q0 12 -2 24h-4q-12 0 -17 -1t-14.5 -6t-19.5 -9q-23 -10 -55 8h-2q-2 0 -9 -6 zM616 1145q10 2 23 -6q18 -10 27 -6q4 2 13 8t17.5 8t20.5 4q-18 20 -53 25q-6 2 -13 6q-14 -4 -22 -14.5t-13 -24.5zM635 1044q16 -20 37 -22q5 -1 9 0q34 0 48 41q-31 0 -49 -2q-33 -4 -45 -17zM657 1405h2h-2z" />
<glyph unicode="F" horiz-adv-x="1118" d="M201 31q4 47 4 120q0 49 -2 109q-3 111 -3 177q0 33 1 55q4 137 4 283.5t-1 343t-1 282.5q0 25 24 26q7 5 15 5q516 -18 829 -19q27 0 27 -26.5t-27 -26.5q-311 0 -815 18q0 -74 1 -273.5t1 -307.5q60 -2 144 -2t194 2q219 4 283 4q27 0 26.5 -26.5t-26.5 -26.5 q-63 0 -283 -4q-116 -2 -204 -3q-78 0 -134 2q-2 -137 -4 -251q-1 -19 -1 -51q0 -64 3 -181q2 -62 2 -111q0 -74 -4 -122q0 -10 -9 -17.5t-19.5 -7.5t-17.5 9t-7 20zM399 496q-4 14 11.5 19t21.5 -11q14 -55 90 -68q22 -4 47 -5q8 0 17 1q-16 8 -31 21q-25 20 -25 44 q0 14 9 29q20 33 63 41q11 2 20 2q33 0 54 -26q2 -2 2 -4q8 16 18 28q26 32 55 32q11 0 23 -5q39 -17 39 -69q0 -45 -37 -76q10 2 23 4q90 25 102 94q4 16 19.5 13t13.5 -17q-16 -92 -127 -121q-8 -2 -19 -4h31q16 0 17 -17q0 -190 14 -331q0 -6 -2 -11q6 -6 6 -16 q-2 -16 -18 -14q-57 6 -140 6q-20 0 -64 -1t-67 -1q-4 -14 -18 -13q-16 2 -15 19q10 60 10 132q0 91 -16 202v6q-4 4 -6 10t4 12q-4 0 -8 2q-94 16 -117 93zM559 377q8 -61 12 -125h105q-2 74 -10 133q-61 0 -107 -6v-2zM567 510q-10 -18 8 -33q33 -27 80 -31q4 20 4 36 q0 26 -10 40q-14 18 -41 13q-29 -6 -41 -25zM569 66q20 0 58.5 1t52.5 1q0 96 -2 151h-105q1 -29 1 -55q0 -53 -5 -98zM692 446q49 10 69.5 34t18.5 48q-2 29 -19.5 37t-39.5 -18q-14 -18 -21 -53q-2 -6 -6 -33q-2 -9 -2 -15zM698 387q9 -61 11 -133h96q-2 61 -2 131 q-12 0 -48 1t-57 1zM711 221q2 -57 2 -153q59 0 104 -5v3q-8 74 -10 155h-96z" />
<glyph unicode="G" horiz-adv-x="1110" d="M154 680q14 186 73 358q31 92 72 164q43 74 99.5 133.5t131.5 86.5q54 21 114 21q22 0 44 -3q94 -12 154.5 -69.5t113.5 -151.5q14 -23 -9 -36.5t-36 11.5q-49 86 -101 134t-130 58q-20 3 -40 3q-111 0 -198 -86q-102 -101 -166 -281q-57 -164 -69 -346q-3 -53 -3 -98 q0 -115 21 -187q33 -109 86 -186q53 -76 113.5 -111t129.5 -44q20 -3 40 -3q47 0 92 16q133 45 220 183q73 117 73 273q0 29 -2 59q-156 -10 -250 -10q-23 0 -43 1q-10 0 -17.5 8.5t-7.5 19.5t8.5 18.5t20.5 7.5h21q88 0 346 12h2h4q10 0 18 -7t8 -18q0 -6 -2 -10 q4 -40 4 -98q0 -73 -6 -174q-5 -92 -5 -161t5 -116q0 -10 -6 -18t-17 -9t-19.5 5t-10.5 18q-5 48 -5 118.5t5 164.5q6 110 6 180q0 42 -2 70h-4q2 -30 2 -59q0 -172 -82 -304q-96 -154 -248 -203q-54 -21 -111 -21q-22 0 -45 3q-79 12 -148.5 52t-129 125t-92.5 202 q-26 82 -26 202q0 48 4 103zM492.5 931q-5.5 15 11.5 21q27 8 100 21q-55 74 -80 135q-4 16 11.5 21.5t21.5 -9.5q20 -59 76 -129v8q-10 79 -10 136q0 35 4 61q2 16 18 14t14 -18q-3 -24 -3 -56q0 -51 8 -122q39 98 51 176q2 16 18.5 14t14.5 -18q-14 -88 -60 -197 q109 16 146 17q16 0 16 -16.5t-16 -16.5q-39 0 -160 -21l-2 -4v-4l86 -100q10 -12 -2.5 -22.5t-22.5 1.5l-55 64q4 -49 4 -86q0 -16 -16.5 -16.5t-16.5 16.5q0 37 -4 88l-39 -88q-6 -14 -20.5 -8t-7.5 20q12 33 53 127l-4 4q-84 -14 -115 -24q-14 -4 -19.5 11z" />
<glyph unicode="H" horiz-adv-x="1368" d="M31 623q14 18 26 39q10 12 23.5 2.5t5.5 -23.5l-31 -39q-10 -12 -22.5 -2t-1.5 23zM70 739q-10 14 2 23q10 8 20 2q20 31 55 41q29 6 62 0q-16 381 -16 602q0 27 26.5 27t26.5 -27q0 -68 2 -139q37 10 59 -2q29 -12 35 -60q2 -10 -8 -16q-25 -41 -41 -49q-18 -10 -43 0 q4 -137 14 -375q64 4 174 4q74 0 168 -2q-2 10 -2 19q0 39 33 79q0 2 2 2q0 8 6 15q10 10 23 -2q25 -25 29.5 -48.5t4.5 -64.5v-2h50q8 0 160 5q59 2 97 2q61 0 70 -5l-2 86q-11 -3 -21 -3q-42 0 -77 46q-10 14 2 23q2 2 6 4l2 2q23 31 51 41q14 4 31 6q-8 248 -8 428 q0 27 26.5 26.5t26.5 -26.5q0 -70 2 -144q10 3 20 2q35 0 66 -32q6 -6 4 -15v-2q10 -12 -2 -22q-33 -29 -43 -35q-18 -8 -43 -6q2 -135 13 -346q15 2 29 3q43 0 73 -24q10 -6 4 -18q4 -10 -2 -19q-20 -18 -100 -69q14 -322 16 -500q20 4 39 -4q27 -10 55 -47q10 -12 -2 -23 q-8 -8 -18 -2q-16 -20 -35 -30q-14 -8 -37 -11v-24q0 -27 -26.5 -27t-26.5 27q0 143 -6 317q-27 -8 -32 -8t-15 2q-12 0 -25 2h-2q-12 4 -12 16v3v4q25 82 82 106q-2 82 -9 240q-43 5 -100 5q-19 0 -39 -1q2 -14 2 -27q0 -39 -18 -71q-8 -12 -21 -7q-10 -4 -18 2 q-39 29 -47 54q-6 20 -4 45q-51 -2 -86 -2q-37 0 -78 1t-90 1t-78 2q12 -37 12 -67t-12 -52q-2 -4 -6 -6q6 -10 -2 -19q-10 -12 -23 -2q-55 45 -67 82q-5 14 -5 29q0 17 7 35q-78 0 -144 -4q12 -315 17 -477q13 3 25 3q35 0 61 -22q12 -10 2 -22q-6 -8 -15 -7 q-41 -29 -71 -38v-111q0 -27 -27 -27t-27 27q0 225 -16 635q-88 16 -123 43q-2 0 -4 2q-8 2 -10 10q-4 4 -8 10zM72 897q-4 16 11 21t21 -9l21 -57q4 -16 -11.5 -21.5t-21.5 9.5zM90 608q14 20 29 39q10 12 22 2t2 -22q-14 -18 -24 -35q-10 -14 -23.5 -5t-5.5 21zM115 739 q29 -18 98 -30l-2 16q-2 4 -2 10t2 13v22q-31 8 -55.5 2t-40.5 -33zM121 907q-2 16 14.5 18t18.5 -14q0 -6 2 -16v-6l2 -4l4 -17q4 -16 -12.5 -20t-20.5 12l-4 14q-2 6 -2 11v8q-2 10 -2 14zM248 1178q23 -12 31 -9q6 4 26 37q2 2 2 4q-4 23 -14 27q-12 6 -41 -4h-4v-55z M283 184q19 7 39 21q-16 4 -39 -2v-19zM309 1100q-2 16 14.5 18t18.5 -14l2 -27q2 -16 -14.5 -18t-18.5 14zM329 1308q-9 13 5 23l18 12q12 8 21.5 -5t-4.5 -23l-19 -12q-12 -8 -21 5zM336 129q-8 14 7.5 21t21.5 -9l10 -22q8 -14 -7.5 -21.5t-21.5 8.5zM340 1155q8 14 22 6 l44 -22q16 -6 9 -21.5t-22 -7.5q-25 10 -47 23q-14 8 -6 22zM348 283q2 4 6 16q2 8 5 12t10 8q10 6 14 11q12 10 22.5 -2.5t-2.5 -22.5q-6 -4 -14 -12l-2 -2l-2 -2l-2 -8l23 8q16 4 21 -11.5t-9 -21.5l-25 -8q-16 -4 -22 10v4q-6 -4 -13 -2q-14 7 -10 23zM364 1250.5 q-5 15.5 11 21.5l20 6q14 4 19.5 -11.5t-11.5 -21.5l-20 -6q-14 -4 -19 11.5zM371 158q-10 12 1 23t23 1l17 -16q10 -12 -1.5 -23.5t-23.5 -1.5zM412 526v23q0 16 16 16t16 -16v-23q0 -16 -16 -16t-16 16zM438 664q8 -23 39 -52v2q9 16 9 38q0 28 -15 65h-25q-14 -31 -8 -53 zM496 520q0 16 16 18q12 0 16 -12q2 -4 2 -10v-24q0 -16 -16 -16.5t-16 16.5v18q-2 4 -2 10zM512.5 911q10.5 12 22.5 2l24 -20q12 -10 2 -22.5t-22 -2.5l-25 21q-12 10 -1.5 22zM549 577.5q4 16.5 20 12.5l27 -6q16 -4 12 -20.5t-20 -12.5l-27 6q-16 4 -12 20.5zM563 944 q-8 16 7.5 23.5t21.5 -6.5l10 -21q8 -16 -7 -23.5t-22 7.5zM571 645q0 16 17 17q8 0 12 -5q14 -2 14 -16q0 -16 -16 -16q-8 0 -12 4q-14 2 -15 16zM639 768q16 -2 31 -2v2q-1 54 -13 72q-21 -28 -21 -53q0 -10 3 -19zM649 944l2 23q2 16 18.5 14t14.5 -18l-2 -23 q-2 -16 -18.5 -14t-14.5 18zM715 907.5q0 16.5 16.5 16.5t16.5 -16.5t-16.5 -16.5t-16.5 16.5zM809 573q12 16 27 33q10 12 22 2t2 -22q-14 -16 -26 -33q-8 -12 -21.5 -3t-3.5 23zM872 682q6 -17 31 -37q11 22 11 48q0 13 -3 26q-12 -2 -39 -2q-4 -23 0 -35zM897 551 q-2 16 13.5 19t19.5 -11l4 -20q2 -16 -13.5 -19.5t-19.5 10.5zM911 966.5q0 16.5 16.5 16.5t16.5 -16.5t-16.5 -16.5t-16.5 16.5zM921 388q3 15 19 13l21 -4q14 -4 11 -19.5t-20 -12.5l-20 4q-14 4 -11 19zM937 847q-5 15 11 21l21 6q14 4 19 -11t-11 -21l-21 -6 q-14 -4 -19 11zM941.5 1006.5q7.5 15.5 21.5 7.5l22 -10q16 -6 9 -21.5t-21 -7.5l-23 10q-16 6 -8.5 21.5zM969 291q-10 12 2 22l16 15q12 10 22.5 -2.5t-1.5 -22.5l-17 -14q-12 -10 -22 2zM971 600q0 16 16.5 16t16.5 -16t-16.5 -16t-16.5 16zM973 464.5q10 12.5 22 2.5 l19 -14q12 -10 2 -22.5t-23 -2.5l-18 14q-12 10 -2 22.5zM992 669.5q4 16.5 20 12.5l22 -6q16 -4 12 -20.5t-20 -12.5l-22 6q-16 4 -12 20.5zM1008 817.5q0 16.5 16 16.5t16 -16.5t-16 -16.5t-16 16.5zM1014 905q21 -21 41 -21q10 0 20 5l-2 51q-12 0 -20 -4q-21 -8 -39 -31 zM1024 301l23 23q12 10 23 -1.5t1 -23.5l-22 -23q-12 -10 -23.5 1.5t-1.5 23.5zM1049 377l6 -2h8q2 0 6 2q10 2 23 6h4l-2 55q-29 -18 -45 -61zM1118 1180q18 -2 31 4q8 4 31 22q-20 21 -42 21q-10 0 -20 -4v-43zM1133 766l4 -53q51 31 69 47q-17 10 -40 10q-15 0 -33 -4z M1155 90q12 2 23 6q12 9 26 27q-12 12 -24 18q-12 4 -25 -2v-49zM1202.5 1159q10.5 12 22.5 2l20 -18q12 -10 2 -22.5t-22 -2.5l-21 19q-12 10 -1.5 22zM1210 29l11 26q4 14 19 9t9 -21l-10 -27q-4 -14 -19.5 -9t-9.5 22zM1210 854l17 33q6 14 21.5 7t6.5 -24l-16 -32 q-6 -14 -21.5 -7t-7.5 23zM1215 1284.5q-6 14.5 8 20.5l24 10q14 6 20.5 -8.5t-7.5 -20.5l-25 -10q-14 -6 -20 8.5zM1227 686q0 16 16.5 16t16.5 -16t-16.5 -16t-16.5 16zM1233 195l4 26q2 16 18.5 13.5t14.5 -17.5l-4 -27q-2 -16 -18.5 -13.5t-14.5 18.5zM1238.5 1190.5 q5.5 15.5 21.5 11.5l22 -8q14 -6 8.5 -21.5t-20.5 -11.5l-23 8q-14 6 -8.5 21.5zM1242.5 1244.5q-5.5 15.5 8.5 21.5l29 10q16 4 21 -11.5t-9 -21.5l-28 -10q-16 -4 -21.5 11.5zM1250.5 796q-9.5 13 2.5 21l47 35q14 10 23.5 -3t-2.5 -22l-47 -34q-14 -10 -23.5 3zM1264 741 q10 12 22 2l17 -14q12 -10 1.5 -22.5t-22.5 -1.5l-16 14q-12 10 -2 22zM1270 63q-2 16 13.5 19.5t19.5 -10.5l6 -31q2 -16 -13.5 -19.5t-19.5 11.5zM1298.5 147.5q-10.5 12.5 1.5 22.5l21 18q12 10 22.5 -2t-2.5 -22l-20 -19q-12 -10 -22.5 2.5z" />
<glyph unicode="I" horiz-adv-x="305" d="M193 1407q0 27 26.5 27t26.5 -27q0 -227 20 -684t19 -684q0 -27 -27 -27t-27 27q0 227 -19 684t-19 684z" />
<glyph unicode="J" horiz-adv-x="796" d="M94 336q0 8 1 18.5t2 22.5t1 18q4 35 4 58q0 6 4 12q-1 11 -1 21q0 47 16 79q22 46 58 46q5 0 9 -1q41 -4 60 -57q11 -33 11 -77q0 -23 -3 -48q0 -4 -4 -8q6 -115 41 -195q29 -66 69 -80q10 -3 20 -3q41 0 95 44q76 61 98 127q14 45 20.5 104.5t6.5 99.5t-4 118t-4 104 q-2 84 -2 660v6q-4 6 -4 14q0 55 26 94q25 36 64 36h6q43 -3 68 -50q24 -43 24 -117v-6q0 -8 -6 -16q-2 -63 -2 -278.5t-2 -319.5q-2 -217 -14 -346q-14 -170 -45 -223q-47 -82 -134.5 -133.5t-179.5 -57.5q-11 -1 -21 -1q-87 0 -158 46q-79 51 -110 160q-12 40 -12 90 q0 19 2 39zM145 326v-12q0 -45 7 -78q47 4 75 14q-10 31 -16 65h-9zM150 358q31 -12 55 -10q-6 49 -6 98q-23 7 -39 17v-6q0 -8 -4 -17q0 -23 -4 -51q0 -6 -1 -17.5t-1 -13.5zM160 203q23 -59 65 -97q8 4 22.5 9.5t16.5 5.5q14 6 25 12q-25 27 -45 70q-2 8 -6 16 q-31 -12 -78 -16zM160 500q16 -10 39 -19q2 18 4 33q-2 12 -4 21q-4 10 -8.5 15t-6.5 7h-2q-8 -4 -12 -14q-8 -16 -10 -43zM258 84q49 -29 115 -29h16q9 0 19 2q-2 4 -2 11q-2 20 -3 24q-31 -6 -57 4q-16 4 -31 15q-16 -10 -39 -19zM436 100q0 -8 2 -28v-9q57 12 109 43 q-12 27 -23 52l-14 -13q-39 -33 -74 -45zM549 180q10 -24 26 -55q45 35 74 78q-29 35 -41 55q-23 -39 -59 -78zM625 297q12 -27 43 -64q16 41 26 140l-43 53q-6 -74 -26 -129zM641 1413q4 -6 4 -14v-6l47 -52l25 -26q0 43 2 69v2l-76 60q-2 -12 -2 -27v-6zM645 801 q20 -14 43 -41l25 -29v33q2 47 2 102q-61 53 -70 62v-127zM645 969q27 -19 70 -60v90q-6 2 -10 9q-25 45 -60 71v-59v-51zM645 1120q47 -34 70 -67v84q-6 2 -8 6l-41 47q-12 12 -21 22v-92zM645 1264q4 -3 8 -7q10 -18 37 -47l25 -26v80q-16 23 -47 55l-23 24v-79zM647 739 q0 -16 1 -37.5t2 -48t3 -43.5l54 -69q4 66 6 145q-14 12 -49 51q-10 12 -17 19v-17zM653 473q4 -2 4 -4l41 -51v2q5 33 7 72q-4 2 -7 4q-14 23 -43 59q0 -45 -2 -82zM653 1477q4 0 9 -4l57 -43q-4 27 -14 45q-10 23 -25 22q-15 3 -27 -20z" />
<glyph unicode="K" horiz-adv-x="1224" d="M193 1407q0 27 26.5 27t26.5 -27q0 -227 20 -717q88 66 231.5 236t164.5 190q16 18 126 127q0 18 5 33q8 29 28 37q14 4 31 -2q33 33 57 63q16 20 37 4t4 -37q-25 -31 -55 -63q18 -29 29 -84q2 -16 6 -45q8 4 16 4q21 15 43 15q30 0 60 -29q22 -29 22 -59q-1 -4 -1 -9 q-4 -35 -25 -69q-21 -36 -55 -56q-21 -13 -43 -12l-25 4q-37 14 -50 61q-4 16 -4 32q0 24 9 48q8 29 22 47v4l-8 58q-8 43 -21 65l-45 -47l-2 -2q0 -4 2 -8q4 -16 -12 -20q-8 -2 -14 4l-101 -101q-41 -43 -125 -147q80 -106 231.5 -344t229.5 -342q18 -29 82 -99 q57 -63 84 -106q14 -23 -8.5 -37t-36.5 8q-25 39 -80 99l-86 102q-76 106 -229 346q-158 246 -221 332q-158 -188 -271 -264q16 -369 17 -588q0 -27 -27 -27t-27 27q0 227 -19 684t-19 684z" />
<glyph unicode="L" horiz-adv-x="1003" d="M193 1407q0 27 26.5 27t26.5 -27q0 -227 20 -674.5t19 -666.5q35 6 96 6q39 1 91 1t118 -1q70 -2 203 -7.5t163 -5.5q27 0 27 -26.5t-27 -26.5q-33 0 -166 5t-200 7q-64 1 -115.5 1t-91.5 -1q-94 -2 -115 -10q-25 -10 -35 15q-2 6 -2 14v2q0 227 -19 684t-19 684z M475 250v4v2q2 76 41 197q-12 10 -2 22q8 10 16 19q31 86 37 106q4 14 11.5 45t9.5 37q10 43 22 68q-2 8 -2 16l-24 -27q-10 -12 -22.5 -1.5t-2.5 22.5l19 20q-27 -2 -54 -2q-16 0 -16 16.5t16 16.5q35 0 68 4q-27 12 -49 19q-16 6 -11 21t19 11q27 -8 53 -20v84 q0 16 16.5 16t16.5 -16v-76q27 37 43 74q6 14 20.5 8t8.5 -21q-16 -43 -47 -84q49 14 131 52q14 8 21 -7.5t-9 -21.5q-74 -35 -117 -49l45 -25q14 -8 6 -22.5t-22 -5.5q-47 27 -76 41h-2v-11q12 4 21.5 -3t19.5 -27q8 -16 16 -43q16 -45 37 -121l51 -203q18 -70 39 -111 q0 -2 2 -2q2 -4 6 -6q12 -16 5 -30q-8 -12 -25 -15h-10h-8h-43q4 -14 6 -22q6 -33 2 -45q-6 -18 -35 -29q-20 -8 -47 -10q-29 -2 -51 2q-29 4 -39 20q-6 8 -6 27q-2 12 0 31q0 8 2 30q0 6 2 8q-47 4 -82 5q-4 -4 -10 -5q-16 0 -17 17zM508 270q47 0 135 -8q100 -8 150 -8h4 q-2 2 -2 4l-25 55q-6 -2 -12 4l-25 21l-2 -2q-12 -12 -29 -21q-25 -14 -38 0q-6 8 -11 25v2q-4 -2 -10 -16q-12 -25 -25 -33q-23 -14 -40 2q-12 10 -17 39q-2 27 -4 31q-12 -4 -39 -31q-8 -33 -10 -64zM530 389q10 6 19 8q16 4 26 -4q8 -6 13 -18q2 -6 6 -37q2 -16 4 -19 l4 3q4 2 10 16q12 25 25 33q23 14 39 0q6 -6 10 -25v-2q12 6 23 16l2 2l4 5q6 4 10 6q12 4 27 -8l4 -3l-4 15l-23 90h-4q-14 0 -29 6l-12 6q-4 2 -8 2l-4 2q-4 -2 -8 -12v-8q0 -18 -13.5 -23.5t-25.5 -1.5q-10 4 -19 13q-4 6 -10 16q-6 8 -8 10q-6 8 -10 8q-8 -2 -19 -10 q-18 -53 -29 -86zM573 516q23 4 39 -16q4 -6 13 -17q4 -8 6 -10q2 6 4 10q8 20 22 29q12 6 29 0q4 0 12.5 -4t10.5 -4q8 -4 12 -4l-21 80q-20 78 -34 118q-8 25 -17 39l-4 8q0 -2 -2 -4q6 -43 16 -79q4 -14 -11 -19.5t-21 10.5q-2 12 -6 27l-3 -6q0 -6 -7 -38t-11 -44z M612 166q0 -8 2 -12q2 -2 17 -4q18 -4 41.5 -2t40.5 8l12 6q2 6 -2 31q0 6 -2 11t-3 11t-1 8l-76 6l-25 2q-2 -4 -2 -8q-2 -23 -2 -30q-2 -16 0 -27z" />
<glyph unicode="M" horiz-adv-x="1955" d="M193 1407q0 27 26 27h4q20 2 29 -17q221 -528 528 -1198q96 197 250 574q150 365 219 518q0 8 -2 14q-2 2 -2 4h-2q-2 0 -9 -2t-9 -4q-37 -10 -57.5 5t-18.5 48q0 25 14.5 51.5t32.5 40.5q4 2 6 5q-10 12 0 22q29 33 51 35q16 2 31 -10q0 2 2 2q80 102 215 110q8 0 17 1 q104 0 155 -72q41 -55 56 -179l8 -102q6 -66 12 -102q14 -98 49 -148q33 32 69 32q10 0 21 -3q14 -2 25 -10q10 -2 12 -13q6 -8 8 -18q3 -10 3 -20q0 -23 -15 -52q-10 -16 -32.5 -30.5t-41.5 -16.5q-7 -1 -14 -1q-32 0 -49 24q-12 18 -10 45q-55 8 -97 61q-39 51 -65 143 q-16 57 -33 142l-4 26q-16 -18 -33.5 -21t-42.5 9v-8q0 -9 1 -18q0 -27 -5 -50q-6 -35 -22 -49q-31 -27 -56 -18q-18 8 -31 35q-2 8 -8 20q-4 16 -6 18q0 4 -2 7l-6 -7l-8 -8q-4 -4 -6 -8q2 -164 19.5 -573.5t16.5 -632.5q0 -27 -26.5 -27t-26.5 27q0 221 -17.5 627.5 t-19.5 564.5q-6 2 -10 4q-6 2 -12 6l-195 -465q-172 -422 -272 -622q-4 -12 -16 -19q-23 -10 -35 14l-510 1147q4 -186 22 -607t17 -646q0 -27 -27 -27t-27 27q0 227 -19 684t-19 684zM1303 1495l8 -16q2 0 4 2q4 2 12 4t17.5 3t15.5 3h4q10 0 16 -4q24 -13 24 -46 q0 -7 -1 -14q0 -2 -1 -6t-1 -6l10 4q14 8 25 11q18 4 30 -3q10 -4 17 -18q4 -10 8 -25q2 -10 4 -22q6 0 12 -2q20 -10 28.5 -9t20.5 19v4q0 2 3 4q0 6 2 11q8 12 22 10q6 -2 12 -10q0 -2 2 -7q2 -6 5 -14l10 -49q14 -84 30 -139q27 -86 62 -131q31 -41 70 -50l2 5 q-43 57 -60 170q-6 37 -12 104q-4 76 -8 102q-12 113 -49 162q-39 58 -129 58q-9 0 -17 -1q-119 -6 -190 -98q-2 -4 -8 -6zM1427 1217l3 -3v3h-3z" />
<glyph unicode="N" horiz-adv-x="1177" d="M193 1407q0 27 26 27q6 0 10 -2q16 2 25 -13q109 -172 455 -674q266 -385 395 -604q-2 193 -20.5 619t-18.5 651q0 27 26.5 27t26.5 -27q0 -227 20 -684t19 -684q0 -27 -27 -27q-12 0 -20 9l-4 8q-152 262 -440 682q-338 492 -420 618q2 -203 20 -635t19 -659 q0 -27 -27 -27t-27 27q0 227 -19 684t-19 684zM776.5 798.5q-0.5 16.5 16.5 16.5q43 2 84 6l-64 84q-10 12 2 22.5t23 -1.5l47 -62q-2 57 -2 125q0 16 16 16.5t16 -16.5q0 -80 5 -145l53 129q6 14 20.5 8t7.5 -20l-51 -125q29 6 60 14q16 4 20 -12.5t-12 -20.5 q-41 -10 -82 -18l74 -97q10 -14 -3.5 -23t-21.5 3l-57 74q6 -51 16 -99q2 -16 -13.5 -19t-19.5 11l-12 72l-6 -12q-6 -14 -21.5 -7t-7.5 23l27 57v9q-47 -6 -98 -9q-16 0 -16.5 16.5z" />
<glyph unicode="O" horiz-adv-x="1261" d="M246 670q8 152 49 301q45 160 123 282.5t186 176.5q18 8 41 12t35 5t40 0t32 -1q26 0 26 -27q141 -33 248 -146.5t159 -262t56 -314.5q1 -23 1 -47q0 -110 -24 -214q-28 -126 -89.5 -231.5t-165.5 -170.5q-102 -68 -236 -74h-17q-150 0 -270 133q-127 145 -174 320 q-21 83 -21 194q-1 31 1 64zM300 668q-1 -31 -1 -60q0 -107 20 -184q41 -162 162 -295q104 -117 230 -117h12q156 8 267 108q110 102 158 250q43 132 43 285q0 19 -1 39q-8 176 -66.5 326.5t-173 251t-266.5 106.5q-14 1 -20 13q-20 -2 -35 -11q-96 -45 -168 -158.5 t-115 -265.5q-39 -142 -46 -288zM494 549q-9 40 -9 70q0 34 11 57q13 27 45 27q7 0 14 -1q29 -4 70 -28q29 -16 61 -43q4 12 19 10q8 -2 12 -12q4 6 10 8q18 8 31 -2v-2q35 27 63 43q43 25 72 29q8 1 15 1q32 0 44 -30q10 -22 10 -54t-10 -73q-22 -92 -22 -111q0 -5 2 -18 q0 -18 2 -27v-28q-2 -16 -8 -25q-14 -18 -39 -14q-20 2 -49 34q-20 23 -47 62l-21 33q4 -94 18 -144q27 -96 99 -110q14 -4 11 -19.5t-19 -13.5q-90 20 -123 133q-12 51 -19 129q-6 -10 -16 -10q0 -2 -2 -2q-4 -158 -156 -234q-16 -8 -23.5 7.5t7.5 21.5q139 69 139 214 q0 19 -2 40v2q-14 -27 -31 -49q-25 -39 -45 -62q-27 -31 -49 -34q-25 -4 -37 14q-6 8 -8 24v27q0 8 2 27v18q0 4 -22 115zM524 555q25 -113 25 -121v-18q-2 -20 -2 -27v-24v-7q2 -2 8 -2q10 2 29 23q18 23 43 59q29 43 53 92q-2 37 0 62q-39 35 -72 53q-35 23 -57 25 q-20 4 -27 -11q-7 -16 -7 -42t7 -62zM764 530q25 -45 53 -90q25 -37 45.5 -59.5t28.5 -22.5q6 0 8 2t2 7v24q-2 8 -2 25q-2 16 -2 20q0 20 25 121q9 38 9 66q0 24 -7 41q-6 12 -27 8q-23 -2 -59 -25q-33 -18 -72 -51q0 -12 -2 -27v-2v-24v-13z" />
<glyph unicode="P" horiz-adv-x="1038" d="M195 1395q0 27 26 26h2q111 12 200 12q81 0 144 -10q193 -31 336 -143q117 -92 117 -182q0 -29 -12 -58q-39 -94 -203 -161q-37 -16 -80 -29v-2q5 -20 5 -42q0 -33 -11 -73q6 0 12 -2q23 -8 23 -29v-2q20 -10 34 -26q24 -25 24 -63q0 -6 -1 -11q-4 -41 -32.5 -72.5 t-71.5 -31.5q-63 0 -89 43q-12 23 -12 51q0 17 4 35q10 45 41 71q-6 12 4 23l4 4v4q4 8 13 12h12h4q9 38 9 68q0 18 -3 33q-37 -10 -73 -17q-4 -20 -7 -43q-2 -16 -18 -14t-14 18.5t4 30.5l-90 -12q-46 -4 -86 -4q-87 0 -148 18q25 -575 25 -790q0 -27 -27 -27t-27 27 q0 227 -19 683.5t-19 684.5zM248 1370q0 -199 12 -496q55 -22 146 -22q38 0 83 4q57 6 115 18l12 17q21 26 45 26q10 0 21 -4q10 -6 20 -16q45 14 84 31q141 57 172 133q8 18 8 37q0 66 -96 141q-131 102 -311 131q-60 10 -137.5 10t-173.5 -10zM641 617q-8 -37 6 -62 q14 -27 60 -27q27 0 47 22.5t23 53.5t-13 49q-8 10 -23 17h-8q-4 0 -8 2q-6 -4 -14 0h-23q-6 2 -10 2q-2 0 -6 -2q-23 -18 -31 -55z" />
<glyph unicode="Q" horiz-adv-x="1355" d="M246 670q8 151 49 301q45 160 123 282.5t186 176.5q18 8 41 12t35 5t40 0t32 -1q27 0 26 -27q141 -33 248 -146.5t159 -262t56 -314.5q1 -22 1 -43q0 -125 -30 -245q-34 -140 -110 -242l8 -8l215 -168q20 -16 4 -37t-37 -4l-215 168l-8 6q-135 -154 -342 -164h-17 q-150 0 -270 133q-127 145 -174 320q-21 83 -21 194q0 31 1 64zM300 668q-1 -31 -1 -60q0 -107 20 -184q41 -162 162 -295q104 -117 230 -117h12q182 9 303 144q-94 76 -160 135q-18 18 -0.5 37.5t37.5 3.5q63 -59 158 -133q130 182 130 455q0 20 -1 40q-8 176 -66.5 326.5 t-173 251t-266.5 106.5q-14 0 -20 13q-20 -2 -35 -11q-96 -45 -168 -158.5t-115 -265.5q-39 -143 -46 -288zM498 907q6 14 20 8q20 -8 53 -30q33 -20 50 -29q25 -10 51 -14q0 2 2 2q0 2 2 4q-27 14 -41 35q-20 27 -12 51q8 29 49 47q35 18 57 -2q8 -6 12 -21l7 7 q21 16 40 16q12 0 23 -6q18 -6 24.5 -20.5t2.5 -30.5q-6 -25 -37 -54q-14 -14 -35 -26h8q6 0 10 -4q96 14 179 75q14 10 23 -3t-3 -21q-45 -35 -96 -55q10 -4 12 -15q3 -29 3 -96q0 -33 -1 -76v-29q0 -86 10 -137q2 -14 -14 -18q-12 -2 -16 10q-6 -6 -15 -4q-70 14 -162 14 q-37 0 -77 -2v-12q0 -16 -16.5 -16t-16.5 16v10q-12 4 -12 15q-2 14 12 18q0 35 -3 127t-3 143q-12 4 -13 17q0 16 17 16h41q-12 4 -25 10q-20 8 -55 31q-31 20 -47 29q-14 6 -8 20zM621 784q0 -41 2 -98h2q39 -6 90 -6q-6 51 -15 102v4q-47 -2 -79 -2zM623 653 q4 -104 4 -137q49 2 98 2q0 59 -6 129q-55 0 -96 6zM653 926q-2 -10 6 -23q12 -16 37 -29q6 8 9 17q2 10 6 20q0 2 2 4v17q2 18 -6 22q-4 6 -23 -2q-27 -14 -31 -26zM733 786q9 -53 15 -106q20 0 60 1t60 1q1 35 1 61.5t-1 44.5q-45 0 -135 -2zM737 883q0 -9 2 -17 q20 12 39 29q23 20 29 37v8q-2 2 -8 6q-14 4 -31 -8q-14 -10 -25 -33q-2 -10 -6 -22zM752 647q6 -70 6 -131q66 -2 116 -12q-6 55 -6 145q-18 0 -57 -1t-59 -1zM848 821h18q0 4 2 6q-10 -2 -20 -6z" />
<glyph unicode="R" horiz-adv-x="1202" d="M195 1395q0 27 26 26h2q111 12 200 12q81 0 144 -10q193 -31 336 -143q117 -92 117 -182q0 -29 -12 -58q-39 -94 -203 -161q-109 -47 -244 -68q156 -72 313 -260q197 -238 306 -518q10 -25 -14.5 -35t-35.5 14q-106 276 -296 506q-166 201 -330 260q2 -20 2 -39 q0 -6 -4 -10q23 -2 26 -4h2q4 -2 7 -4q6 -8 2 -19q-2 -4 -9 -8h-4h-2h-4h-6q38 -18 52 -49q9 -19 8 -39q0 -13 -3 -26q-10 -41 -46 -66q-28 -20 -65 -20q-10 0 -22 2q-33 4 -51 29.5t-22 58.5q-1 11 -1 21q0 60 42 89q12 10 34 11q-2 8 2 12q2 2 2 4q3 12 17 12h4q6 2 8 2v4 q0 23 -4 49q-31 8 -61 11q-27 0 -50 2h-15q-54 0 -73 -13q-2 -2 -6 -2q23 -539 23 -759q0 -27 -27 -27t-27 27q0 227 -19 683.5t-19 684.5zM248 1370q0 -199 12 -496q35 -14 92 -20h21q20 39 43 49q18 8 35 0q12 -6 22 -20q6 -12 12 -27h4q162 16 297 72q141 57 172 133 q8 18 8 37q0 66 -96 141q-131 102 -311 131q-60 10 -137.5 10t-173.5 -10zM397 588q4 -53 45 -60q10 -1 18 -2q26 0 46 14q26 18 33 48q6 27 -7.5 50.5t-48.5 31.5l-6 2h-22q-23 2 -29 -2q-12 -10 -20 -23h6q16 0 16 -16.5t-16 -16.5q-10 0 -15 7q-2 -14 0 -33zM410 852 q20 0 41 2q-2 6 -5 10q-6 8 -10 10q-2 2 -6 0q-8 -4 -20 -22zM422 577.5q0 16.5 16.5 16.5t16.5 -16.5t-16.5 -16.5t-16.5 16.5zM444 653.5q0 16.5 16.5 16.5t16.5 -16.5t-16.5 -16.5t-16.5 16.5zM475 608.5q0 16.5 16.5 16.5t16.5 -16.5t-16.5 -16.5t-16.5 16.5z" />
<glyph unicode="S" horiz-adv-x="1056" d="M178 698q0 12 7.5 20.5t18.5 8.5t19 -7t8 -18q10 -184 45 -318t127 -234q49 -55 135 -87q81 -30 166 -30h11q94 2 162.5 44t93.5 122q14 48 14 98q0 148 -119 324q-18 29 -38.5 55t-49.5 57l-41 51q-16 18 -52 54t-44 45.5t-49 50.5l-41 41l-39 37l-61 59q-29 29 -52 57 q-49 55 -71 101q-23 45 -23 81q0 12 2 23q18 76 101 109q53 20 123 19q19 0 40 -1q12 -2 27 -4q10 12 18 19q16 12 33 10q14 -4 25 -21q6 -8 10 -22q123 -31 176 -84q98 -92 111 -273q0 -12 -7.5 -20t-18.5 -8t-19 7t-8 17q-10 160 -95 240q-39 35 -129 61q2 -27 2 -67 q6 -2 9 -2l14 -8h6h2v-11q33 -10 57 -43q20 -28 20 -56q0 -7 -1 -13q-6 -43 -55 -62q-16 -5 -32 -5q-25 -1 -46 13q-35 22 -47 60q-7 19 -7 35q0 19 9 34q8 14 24 23v2q-6 6 -8 15.5t3 16.5t15 9h5q0 41 -5 70q-47 10 -92 14q-18 1 -35 1q-62 0 -104 -17q-57 -20 -68 -70 q-1 -6 -1 -12q0 -23 16 -56q20 -39 63 -90q25 -29 54 -57l59 -57l37 -37l43 -41q39 -39 48 -49.5t44 -46t51 -56.5l45 -49q29 -33 49 -61q20 -27 43 -60q126 -186 126 -350q0 -60 -17 -117q-29 -98 -113 -148t-190 -54h-11q-94 0 -186 34q-98 36 -158 99q-100 111 -137 253 t-47 332zM639 1450h6l-2 2q-2 0 -4 -2zM653 1200q10 -29 33 -43t49 -4q31 10 35 32.5t-12 47.5q-16 20 -37 29q-6 -6 -14 -7h-9h-6h-10l-4 -4q-8 -10 -21 -4q-2 -2 -4 -6q-10 -16 0 -41zM678 1177.5q0 16.5 16.5 16.5t16.5 -16.5t-16.5 -16.5t-16.5 16.5zM684 1233 q0 16 16.5 16t16.5 -16t-16.5 -16t-16.5 16zM725 1200.5q0 16.5 16.5 16.5t16.5 -16.5t-16.5 -16.5t-16.5 16.5z" />
<glyph unicode="T" horiz-adv-x="1130" d="M26 1396.5q0 26.5 27 26.5q172 0 516 -3t514 -3q27 0 27 -26.5t-27 -26.5q-170 0 -499 2q0 -221 20 -672.5t19 -679.5q0 -27 -27 -26.5t-27 26.5q0 227 -19.5 679t-19.5 675q-307 2 -477 2q-27 0 -27 26.5zM647 387q4 16 21 12q10 -2 37.5 -11t42.5 -9v6q-8 27 0 55 q6 33 26 47q27 18 57 0q18 -12 25 -30q27 36 59 36q10 0 21 -4q18 -6 27 -22q6 -14 4 -31q-6 -29 -37 -57q-12 -12 -27 -23q16 2 41 11q75 28 85 28h1q16 2 18.5 -14t-14.5 -19q-8 0 -71 -24q4 -2 7 -6t5 -13q0 -4 2 -10q0 -12 2 -35q2 -35 4 -94q2 -92 2 -160 q0 -16 -16 -16h-4h-2q-14 0 -49 -1t-55.5 -1t-50.5 2t-54 8q-4 -12 -17 -12q-16 0 -16 16q0 184 -25 281v10q-4 14 11 19q29 12 71 16l-8 4q-18 -2 -36.5 1t-42 10.5t-32.5 9.5q-16 4 -12 20zM729 301q10 -45 16 -98h3q18 -2 49 0h20q14 0 21 2q-2 63 -13 104h-14 q-51 0 -82 -8zM750 170q4 -53 4 -125q39 -8 92 -10q-8 45 -8 137q-6 -2 -19 -2h-22q-29 -2 -47 0zM778 393l4 -12q20 10 35 35q8 16 8 26.5t-10 16.5q-14 8 -22.5 2t-14.5 -27q-4 -23 0 -41zM815 365h19q-3 8 -3 14q-8 -8 -16 -14zM860 307q8 -41 10 -102q47 0 80 -10 q-2 47 -4 77q-2 20 -2 33q-2 4 -2 6q0 -2 -4 -2q-25 -4 -27 -4q-16 0 -51 2zM862 383q2 -4 2 -8q25 10 43 26q23 23 27 41q2 6 0 9.5t-10 5.5q-5 2 -10 2q-23 0 -42 -37q-10 -20 -10 -39zM870 172q0 -94 11 -137q10 0 34.5 1t36.5 1q0 61 -2 123h-6q-29 12 -74 12z" />
<glyph unicode="U" horiz-adv-x="1122" d="M268 648q-1 42 0 80q0 60 2 108q2 117 19.5 308t44.5 273q6 25 31.5 18t17.5 -34q-23 -76 -40 -263.5t-19 -301.5q-3 -55 -2 -120v-68q2 -106 20 -181q25 -113 84 -210t135 -146q60 -36 119 -36q22 0 43 5q94 23 184 135q90 115 115 231q28 116 28 385q0 49 -1 103 q-2 174 -19 287q-16 131 -45 168q-14 23 7.5 38t37.5 -6q35 -51 53 -194q16 -121 19 -291q1 -55 1 -105q0 -274 -28 -397q-29 -127 -127 -252q-100 -127 -213 -153q-29 -7 -58 -7q-72 0 -142 44q-88 55 -153 161.5t-93 227.5q-19 83 -21 193zM547 354.5q-2 16.5 14 18.5 q14 2 113 6v18l-60 105q-8 14 6.5 22t22.5 -6l33 -55q2 94 22 137q6 16 21.5 9t7.5 -21q-20 -47 -20 -174q33 55 55 90q31 47 47 57q14 10 23.5 -3t-3.5 -21q-12 -10 -38 -52q-25 -35 -58 -92l-6 -10q76 6 121 27q14 8 21.5 -7.5t-9.5 -21.5q-47 -23 -121 -31q31 -51 60 -90 q10 -14 -3.5 -23.5t-21.5 3.5q-31 41 -65 98q4 -111 4 -125q0 -16 -16.5 -16t-16.5 16q0 25 -2 80l-41 -74q-8 -14 -22.5 -6t-6.5 23l62 110q-86 -4 -105 -6q-16 -2 -18 14.5z" />
<glyph unicode="V" horiz-adv-x="1214" d="M88 1093.5q2 16.5 18 14.5h17q8 -2 14 -2q4 -2 10 -8q10 -8 13 -13q12 -10 2 -22t-23 -2l-14 12v2h-2h-21q-16 2 -14 18.5zM111 1163.5q4 16.5 20 12.5q25 -6 25 -9l24 -12q14 -8 6 -22.5t-22 -6.5l-17 9l-4 4h-2t-7 1t-11 3q-16 4 -12 20.5zM174 1016q0 6 4 10q0 4 2 6 l37 72q14 20 39 31q-49 147 -80 262q-6 25 19.5 32t33.5 -20q31 -119 80 -268q2 -4 4 -6v-5l33 -96l86 -243q16 27 43 30q6 2 49 2h2q4 4 11 4q16 0 16 -16q0 -31 -6 -57q6 2 10 2l23 -6q16 -4 12 -20.5t-21 -12.5l-22 6q-6 2 -10 6q0 -2 -2 -6q-20 -43 -64 -51l4 -15 q12 -39 92 -307q37 -131 68 -217q53 119 123 301l69 193q-27 10 -45 26.5t-41 55.5q-2 2 -2 6v6q16 53 68 55h6q29 0 66 -18l18 49l127 295l23 51q-2 -2 -7 -2q-25 -10 -43 -4q-18 4 -30 20q-8 10 -19 29q-12 20 -16 26.5t-4 12.5q-2 2 -2 4q-8 14 8 21q43 20 76 20h8 q43 -2 63 -39q35 84 60 156q8 25 32.5 16.5t16.5 -33.5q-41 -123 -117 -299l-49 -110q25 -8 39 -21q25 -20 29 -61q0 -10 -7 -15q0 -8 -6 -12q-24 -22 -48 -22q-12 0 -25 6q-14 6 -27 20l-33 -80q-29 -72 -123 -325q27 -10 47 -25q41 -31 46 -71q0 -4 -3 -9q6 -14 -6 -20 q-41 -23 -77 -23q-29 0 -56 15q-59 -154 -112 -265l6 -14q10 -25 -14.5 -35t-34.5 15l-5 10q-12 8 -10 24q-41 106 -88 271l-4 14q-18 -18 -39 -22q-23 -6 -55 4q-4 -8 -14 -8q-16 0 -17 16q0 61 17 92q23 39 71 45q-29 100 -49 166q-20 63 -127 360q-14 -2 -111 -2 q-16 0 -16 17zM190 942q-4 16 11.5 20.5t21.5 -8.5l10 -28q4 -16 -11 -21.5t-21 8.5zM217 1032q26 -1 44.5 -1t29.5 1l-25 72q-14 -6 -22 -19q-7 -6 -27 -53zM248 950q-2 16 14.5 18t18.5 -14l4 -26q2 -16 -14.5 -18.5t-18.5 14.5zM321 467.5q7 15.5 21 7.5l29 -12 q16 -6 9 -21.5t-22 -7.5l-28 12q-16 6 -9 21.5zM342 505.5q2 16.5 18 14.5l25 -4q16 -2 14 -18.5t-18 -14.5l-25 4q-16 2 -14 18.5zM412 242l10 14v4v23q0 16 16.5 16t16.5 -16v-21q2 -10 0 -14q-2 -6 -6 -12l-13 -15q-10 -12 -22 -1.5t-2 22.5zM422 365q31 -12 45 -9 q18 4 35 31l-15 55q-39 -2 -53 -26q-8 -18 -12 -51zM442 762l21 -60q31 4 45 35q8 21 12 54h-39q-14 -4 -22 -21q-6 -8 -17 -8zM459 874v23q0 16 16.5 16t16.5 -16v-23q0 -16 -16.5 -16t-16.5 16zM475 227v23q0 16 16.5 16t16.5 -16v-23q0 -16 -16.5 -16t-16.5 16zM520 881 v8v8q0 8 2 12t6 11q6 8 11 14q10 14 23 5t5 -21l-12 -17l-2 -4v-6v-10q0 -16 -16.5 -16.5t-16.5 16.5zM568 811q0 16 16 16h20q16 0 16 -16t-16 -16h-20q-16 0 -16 16zM663 675q-5 15 9 21l35 13q16 4 21 -11.5t-9 -21.5l-35 -12q-16 -4 -21 11zM684.5 604.5 q-4.5 16.5 11.5 20.5q4 0 19 4h2l4 4l12 14q12 10 23.5 -1t1.5 -23l-15 -13q-6 -6 -8 -10q-6 -2 -14 -4q-12 -2 -16 -4q-16 -4 -20.5 12.5zM756 844q-8 12 5 21t23 -5l13 -18q8 -12 -5.5 -21.5t-23.5 4.5zM776 719q16 -29 31 -41q12 -12 35 -21l26 72q-35 16 -57 14 q-25 1 -35 -24zM788 358q20 -12 43 -12q25 0 54 14q-2 29 -33 50q-14 12 -37 20l-6 -14zM817 883q-2 16 14.5 18t18.5 -14q4 -33 10 -56q4 -16 -12.5 -20t-20.5 12q-6 27 -10 60zM834 1202.5q-2 16.5 14 18.5l33 4q16 2 18 -14.5t-14 -18.5l-33 -4q-16 -2 -18 14.5zM836 283 q-8 14 7 21t21 -9l23 -51q4 -16 -11.5 -21.5t-21.5 8.5q-6 23 -18 52zM861.5 1121.5q-5.5 15.5 8.5 21.5l21 6q6 2 8 2l21 12q14 8 22 -6t-6 -22q-23 -12 -25 -13l-10 -6l-18 -6q-16 -4 -21.5 11.5zM903 291q-8 16 7.5 23t21.5 -7l10 -20q8 -16 -7 -23.5t-22 6.5zM909 468 q3 15 17 13l22 -4q16 -4 13 -19.5t-17 -13.5l-22 5q-16 4 -13 19zM926 1335q-4 16 11 21.5t21 -8.5l9 -23q4 -16 -11.5 -21.5t-21.5 9.5zM936 391.5q0 16.5 16 16.5h23q16 0 16 -16.5t-16 -16.5h-23q-16 0 -16 16.5zM965 1237q4 -8 14 -25q8 -16 14 -24q8 -8 15 -10 q8 -2 22 2q14 6 21 -9q2 -4 2 -6l16 39q-6 4 -10 10q-10 31 -41 33q-22 2 -53 -10zM985 1368q-2 16 14.5 18t18.5 -14l2 -29q2 -16 -14.5 -18t-18.5 14zM995 899q14 -18 27 -22q16 -8 39 10q-2 27 -17 39q-10 8 -30 14zM1032 809q-2 16 14.5 18t18.5 -14l2 -16q2 -8 2 -11 v-10v-16q0 -16 -16.5 -16.5t-16.5 16.5v18v6v7zM1084 849.5q4 16.5 20 12.5l24 -6q0 -2 21 -12q14 -8 6 -22.5t-22 -6.5l-13 8q-4 0 -5 1t-2 1t-6 1t-11 3q-16 4 -12 20.5zM1099 939.5q-9 13.5 3 21.5l16 12q14 10 23.5 -3.5t-2.5 -21.5l-17 -12q-14 -10 -23 3.5z M1117.5 898.5q-3.5 15.5 10.5 19.5l29 6q16 2 19.5 -13.5t-11.5 -19.5l-28 -6q-16 -2 -19.5 13.5z" />
<glyph unicode="W" horiz-adv-x="1726" d="M29 1405q-6 25 19.5 32t33.5 -20q37 -147 117 -375q117 -334 131 -376q12 -39 92 -308q39 -133 65 -208q14 53 39 131q57 172 70 219q20 74 70.5 274.5t89.5 340.5t84 267q2 6 6 11q4 14 18 18q25 7 33 -20q37 -147 117 -375q117 -334 131 -377q12 -39 92 -307 q43 -147 70 -221q39 119 73 249l78 308l64 254q12 43 71 227q45 139 60 223q2 12 11 18.5t20.5 4.5t17.5 -11.5t4 -19.5q-16 -90 -61 -231q-63 -199 -70 -224l-68 -270l-90 -340q-37 -139 -80 -266v-2q10 -25 -14 -35q-20 -8 -33 8q-12 10 -10 27q-43 109 -94 284 q-84 289 -90 308q-16 51 -131 374q-66 182 -99 301q-39 -119 -75 -251l-78 -306l-64 -254q-14 -51 -71 -225q-41 -127 -58 -203l2 -2q10 -25 -14 -34q-6 -2 -12 -3h-9q-12 2 -18 11.5t-4 19.5v4q-43 111 -94 287q-84 289 -90 307q-16 51 -131 375q-80 229 -121 381z M1186 922q2 10 12 14l2 59q6 119 19 193q18 113 57 168q35 53 90 59q6 8 14 6q6 0 11 -6q10 0 20 -2q33 -8 59 -47q25 -35 35 -80q7 -28 7 -54q0 -17 -3 -32q-8 -45 -45 -61q-25 -12 -43 -8t-30 20q-14 20 -21 72q-6 49 -10 57l-4 -4q-23 -20 -29 -80q-1 -10 -1 -23 q0 -40 5 -106q8 -83 8 -124v-15q-3 -74 -29 -111q-25 -35 -52 -35h-3q-27 0 -45 31q-26 40 -26 84q0 13 2 25zM1225 862q4 -18 12 -33q10 -14 18 -14q12 -2 31 23l4 8q-6 -2 -12 2q-26 16 -49 43q-2 -18 -4 -29zM1231 940q29 -43 63 -63q4 -2 6 -7q6 23 7 58q-4 0 -9 4 q-42 30 -65 55zM1235 1030q4 0 6 -4q25 -31 66 -59l-7 82q-39 22 -59 55q-4 -33 -6 -74zM1247 1153q6 -4 8 -8q18 -37 41 -55q-3 47 -3 79q0 16 1 29q2 18 6 35q-8 8 -20 27l-8 10q-12 -37 -21 -88zM1286 1307l21 -29l6 -8q8 18 22 30q12 10 23 13q0 47 2 67q-33 -6 -57 -43 q-9 -12 -17 -30zM1386 1300l5 -10q4 -10 12 -63q0 -14 2 -25q10 74 43 129l4 4l-8 13q-20 29 -41 32q-4 2 -10 2q-2 -20 -2 -71q0 -6 -5 -11zM1430 1163q8 -2 22 4q20 10 26 41q3 12 3 26q0 21 -6 44q-5 10 -7 20q-27 -47 -32 -124q0 -6 -6 -11z" />
<glyph unicode="X" horiz-adv-x="1132" d="M135 45q16 16 29.5 34.5t19.5 31.5l25 36q14 25 22 39l113 174l135 203l115 172l-25 35l-8 -12q-10 -14 -23.5 -5t-4 22t15.5 24q-14 23 -78 110l-90 127l-74 111q-49 72 -82 131l-67 119q-12 25 12.5 37t36.5 -13q29 -59 63.5 -117.5t81.5 -127.5l72 -109l88 -125 l80 -111q14 2 25.5 -7t17.5 -29l6 10q49 76 213 303q139 193 205 305q12 23 35.5 9.5t9.5 -38.5q-70 -119 -207 -307q-162 -227 -211 -301l-27 -41l52 -78l397 -622q14 -23 -8.5 -37t-36.5 8l-397 623l-25 37q-2 -20 -2 -43q-2 -18 -4 -41v-2q12 -2 14 -15q6 0 13 -2 q6 0 10 -2t8 -6q6 -6 4 -16q0 -6 -6 -11q35 -23 45 -69q4 -16 4 -32q0 -20 -6 -38q-12 -37 -43 -47q-14 -4 -28 -4q-31 0 -56 22q-31 27 -40 73q-3 15 -3 29q0 28 12 50q8 14 21 23v2q-6 10 0 18q-2 6 0 12q4 10 16 15h2v2q2 25 3 42t3 31q-285 -424 -332 -499 q-8 -12 -22 -37t-23.5 -39t-23.5 -34.5t-31 -39.5q-18 -18 -37.5 -0.5t-3.5 37.5zM586 438l4 -12q29 55 28 86v2q-4 0 -8 -2q-10 -4 -18 -16q-12 -23 -6 -58zM606 395q4 -6 8 -10q10 -8 19 -12q14 29 31 90q4 14 18 12q-10 20 -31 31q-2 -35 -37 -105q-2 -4 -8 -6zM670 375 q12 4 18 24t4 43q-12 -43 -22 -67z" />
<glyph unicode="Y" horiz-adv-x="1120" d="M190 1360q-10 25 14.5 35t35.5 -15q35 -82 108 -194q25 33 62 47q2 8 12 10q8 2 14 -6q8 -2 10.5 -10t-4.5 -15q3 -23 3 -45q0 -54 -21 -96l55 -88q31 -51 80 -137q51 -92 78 -135h10q43 61 94 153l115 207l88 143q-2 0 -2 3q-47 41 -47 137q0 12 12 16v2q4 16 19 14 q45 -8 67 -24q14 -12 25 -31q16 31 33 58q12 25 35.5 11t9.5 -36q-33 -59 -97 -162q-74 -117 -98 -160l-113 -202l-8 -15q33 -29 56 -94q4 -16 -11 -22q-8 -2 -14 2h-2q-41 0 -57 4q-14 4 -27 16l-53 -82q2 -14 -10 -24q-1 -13 -1 -29t1 -35q3 -71 3 -104q0 -17 -1 -25 q-4 -78 -8.5 -225.5t-4.5 -173.5q0 -12 -8 -19.5t-19.5 -7.5t-18.5 8.5t-7 18.5q2 35 2 76q-82 10 -123 49q0 -8 -8 -15q-23 -12 -26 -13t-11 -3q-10 -2 -18 -4q-16 -2 -19 13.5t11 19.5q10 2 22 4h6l2 2q8 4 17 10q12 6 20 -4q0 8 4 14q12 10 25 0q0 4 4 8q20 27 47 33 q25 4 49 -12q4 141 8 225q1 6 1 22q0 31 -3 101q-1 18 -1 34q0 33 3 56q-33 53 -104 182q-2 -8 -6 -12q-27 -16 -56 -14q-6 0 -22 4q-12 4 -23 4q-16 2 -14 18q2 10 10 13v2q0 47 25 72q10 12 26 16l-12 20q-25 41 -79 123t-95 150.5t-70 132.5zM306.5 822.5 q-5.5 15.5 10.5 21.5l27 8q14 4 19 -11.5t-11 -21.5l-26 -8q-14 -4 -19.5 11.5zM308.5 930.5q9.5 13.5 23.5 5.5l14 -12l2 -2h4q10 -2 17 -2q16 -2 14 -18.5t-18 -14.5q-6 2 -17 2l-12 4q-4 0 -10 6l-15 8q-12 10 -2.5 23.5zM328 1321q-2 16 13 19t19 -11q6 -31 15 -57 q4 -14 -11.5 -19.5t-21.5 11.5q-8 27 -14 57zM367 1157l34 -53q13 29 13 66q0 14 -2 28q-27 -12 -45 -41zM385 1311v8v10v17q0 16 16.5 16t16.5 -16v-19v-8v-4v-4l2 -7q2 -6 6 -16q4 -14 -11.5 -19t-21.5 11q-8 27 -8 31zM393 778q-4 16 12.5 20t20.5 -12l6 -28v-31 q0 -16 -16.5 -16t-16.5 16v14v9v4v4l-2 6t-4 14zM426 262q-10 12 2.5 22.5t22.5 -1.5q4 -6 8 -11l4 -6h4v-3t4 -3l12 -8q14 -10 5 -23.5t-21 -5.5q-20 14 -23 17l-4 4q-2 2 -6 8t-8 10zM428 842h2q14 -4 19 -4q16 -2 30 10q8 4 17 0l-33 57q-12 0 -21 -10q-14 -14 -14 -49 v-4zM431.5 75q-7.5 15 8.5 21l29 13q14 8 21.5 -7.5t-9.5 -21.5l-28 -12q-14 -8 -21.5 7zM459 743q-2 16 13.5 19.5t19.5 -10.5l6 -31q2 -16 -13.5 -19.5t-19.5 11.5zM464 1154q5 15 21 11q8 -4 17 -6l4 -2h4h6h16q16 0 16.5 -16.5t-16.5 -16.5h-30q-2 0 -29 9q-14 6 -9 21z M465 1218.5q2 16.5 18 14.5l27 -2q16 -2 14 -18.5t-18 -14.5l-27 2q-16 2 -14 18.5zM473 285q-4 16 12.5 20t20.5 -12l6 -23q4 -16 -12.5 -20t-20.5 12zM522 164q25 -16 78 -21l2 33q-6 0 -12 4q-16 12 -30.5 10t-29.5 -20q-2 -4 -8 -6zM723 667.5q-6 14.5 8 20.5l21 8 q14 6 20 -8t-8 -20l-21 -9q-14 -6 -20 8.5zM741 760q8 -10 21 -15q10 -2 33 -2q-12 33 -31 54zM787 1312.5q2 16.5 18 14.5l47 -8q14 -4 11 -19.5t-19 -13.5q-18 4 -43 8q-16 2 -14 18.5zM788 637l13 33q4 14 19 8.5t9 -21.5l-12 -32q-4 -14 -19.5 -9t-9.5 21zM804 1420.5 q5 15.5 21 11.5q31 -10 54 -19q14 -6 9 -21.5t-22 -11.5q-23 8 -53 19q-14 6 -9 21.5zM817 817.5q0 16.5 16.5 16.5t16.5 -16.5t-16.5 -16.5t-16.5 16.5zM851 759q-7 15 7 21l25 13q16 8 23 -7.5t-7 -21.5l-25 -12q-16 -8 -23 7zM889 1458v35q0 16 16.5 16t16.5 -16v-18v-9 v-4v-2q0 -2 2 -8t6 -16q4 -14 -11.5 -19.5t-21.5 10.5zM928 1352q0 -78 35 -111l34 55q-8 27 -24 39q-14 13 -45 17zM948 1460q-4 16 11.5 21.5t21.5 -8.5l10 -31v-33q0 -16 -16.5 -16t-16.5 16v16v7v4v2q-2 2 -4 8t-6 14z" />
<glyph unicode="Z" horiz-adv-x="1126" d="M39 49.5q-19 18.5 0 36.5q47 47 96 104.5t107 133.5l94 122l102 140l86 119q57 80 244 303q145 174 219 276q-244 2 -520 12h-27q2 -14 0 -43q-2 -41 0 -55h9q16 -4 14 -18v-4q2 0 4 -2h4q10 0 16 -3h2q6 -2 9 -6q2 -2 2 -4q25 -12 37 -39q9 -18 9 -38q0 -16 -6 -34 q-14 -40 -57 -65q-30 -16 -53.5 -16.5t-42.5 16.5q-31 25 -33 78v7q0 46 23 75h-2q-12 8 -10 22q2 10 12 17q6 4 14 6q6 2 17 4q-2 16 0 59q2 31 0 43h-50v-28q0 -16 -16 -16.5t-16 16.5v28q-35 -1 -65 -1q-100 0 -159 10q-10 2 -17 11t-5 19.5t11.5 17.5t19.5 5 q52 -9 165 -9q38 0 82 1q27 14 45 12q12 -2 21 -12h47q311 -12 582 -13q27 0 26.5 -26.5t-26.5 -26.5h-2q-2 -2 -2 -4q-72 -102 -242 -307q-172 -207 -242 -301q-10 -16 -94 -131l-121 -164q-37 -51 -104.5 -135t-120.5 -144q23 -5 89 -5q33 0 76 1q87 3 134 3q24 0 37 -1 q387 -14 618 -14q27 0 27 -26.5t-27 -26.5q-231 0 -618 14q-16 1 -39 1q-33 0 -79 -2t-89 -2q-28 0 -54 1q-66 2 -120 10l-4 -2q-18 -18 -37 0.5zM387 1065q2 -39 21 -55q20 -18 59 4q33 18 42 47t-1 47q-12 25 -35 29h-10h-2q0 -6 -4 -11q-8 -12 -23 -2q-2 0 -4 2 q-2 -2 -6 -4q-11 -6 -21 2h-2q-14 -20 -14 -59zM408 1083.5q0 16.5 16 16.5t16 -16.5t-16 -16.5t-16 16.5zM412 1050.5q0 16.5 16 16.5t16 -16.5t-16 -16.5t-16 16.5zM446 1075.5q0 16.5 16.5 16.5t16.5 -16.5t-16.5 -16.5t-16.5 16.5z" />
<glyph unicode="[" horiz-adv-x="423" d="M6 -307q0 10 2 28q2 31 8 84q2 23 6.5 57t6.5 52t2 25q8 145 8 417q0 264 4 398q2 80 18 311q6 121 13 190q4 41 6 64q2 12 2 20q2 4 2 7.5t2 5.5q4 8 10 12q16 12 62 16q37 2 84 2q109 -2 145 -16q25 -8 15.5 -33.5t-36 -15.5t-124.5 12q-45 0 -78 -2q-18 -2 -31 -4v-10 l-6 -62q-6 -70 -12 -190q-16 -231 -19 -307q-4 -135 -6 -400q0 -274 -6 -420q0 -4 -2 -23.5t-6 -54t-6 -57.5q-6 -53 -9 -82q-2 -14 -2 -22q41 -23 138 -33q66 -6 170 -6q27 0 26.5 -26.5t-26.5 -26.5q-106 0 -174 6q-125 12 -175 51q-6 4 -10 14v7q-2 4 -2 12z" />
<glyph unicode="\" horiz-adv-x="536" d="M-8 1401q0 12 7 20.5t18.5 8.5t19.5 -7.5t8 -17.5q6 -100 68 -254q8 -23 47 -116t53 -140q8 -23 53 -158l64 -184l53 -152q37 -102 68 -180l63 -155q10 -25 -14.5 -35.5t-34.5 14.5l-64 156q-31 78 -67 184l-53 150q-16 45 -63.5 184t-53.5 160q-16 47 -53 137l-50 117 q-63 162 -69 268z" />
<glyph unicode="]" horiz-adv-x="356" d="M-39 -317.5q-2 10.5 5 19.5t18 11q14 2 65 7.5t80 9.5q47 6 76 12q25 4 35 10v8q-8 41 -9 43q0 18 -1 76t0 87.5t4.5 76.5t9.5 84q20 106 29.5 236.5t10.5 211t-1 249.5t-2 223v45q0 29 1 68.5t1 66.5v88v22q-35 12 -109 9q-59 -2 -135 -15q-10 -2 -19.5 5t-11.5 17.5 t5.5 19.5t17.5 11q78 12 141 15q106 6 150 -23q8 -4 10 -12q2 -2 2 -4v-6q0 -4 2 -11v-28v-88q0 -27 -1 -67t-1 -68v-45q0 -51 2 -221.5t1 -252t-11 -215.5q-10 -125 -29 -239q-6 -37 -9 -81t-4 -71.5t0 -84t1 -79.5q0 -4 1 -8t3 -11t2 -15q8 -39 -17 -58q-16 -12 -59 -22 q-31 -6 -80 -13q-27 -4 -78 -9t-65 -7q-10 -2 -19.5 5t-11.5 17.5z" />
<glyph unicode="^" horiz-adv-x="835" d="M158 635q0 111 112 328l90 167q51 96 72 142q2 4 4 10l2 4q4 14 13 21q14 16 34 10q14 -4 29 -17l6 -8q2 0 2 -2l2 -6l11 -18l28 -64l92 -194q137 -301 158 -338q10 -25 -13.5 -36t-35.5 11l-158 340l-90 195l-31 63l-4 8q-20 -49 -73 -145l-91 -168q-106 -205 -106 -303 q0 -27 -26.5 -27t-26.5 27z" />
<glyph unicode="_" horiz-adv-x="1077" d="M-25 -225.5q2 10.5 11.5 17.5t19.5 5q115 -16 255 -18t252 5t261.5 15t255.5 8q27 0 27 -26.5t-27 -26.5q-100 0 -250.5 -8t-264.5 -15t-257 -5t-260 18q-10 2 -17.5 11t-5.5 19.5z" />
<glyph unicode="`" horiz-adv-x="339" d="M119 1409q-10 25 14.5 35.5t34.5 -14.5q16 -39 61 -84q74 -72 84 -84q16 -20 -4 -37t-37 4l-79 78q-51 51 -74 102z" />
<glyph unicode="a" horiz-adv-x="823" d="M82 168q-21 48 -21 98q0 85 58 178q41 68 123 138q80 70 153 88q6 0 11 2q14 23 34 30q23 10 39 -4q10 -6 17 -20q70 0 129 -19q57 -16 94 -49q-18 193 -60 269q-33 68 -93 93q-41 17 -86 17q-22 0 -44 -4q-68 -10 -123 -52t-77 -102q-8 -25 -34 -15.5t-16 36.5 q27 72 93.5 122t148.5 64q25 4 50 4q57 0 110 -22q76 -32 121 -117q57 -113 75 -444q4 -82 9 -213v-6q6 -195 10 -250q0 -10 -7.5 -19.5t-17.5 -9.5t-19 7t-9 18q-4 55 -9 174q-61 -76 -146 -119t-166 -47q-12 -1 -25 -1q-68 0 -136 19q-137 43 -186 156zM131 190 q39 -92 154 -129q53 -16 107 -17q69 0 141 26q129 46 206 178q-4 129 -8 209l-2 16q-6 9 -6 19q0 82 -115 116q-45 14 -100 17q1 -14 1 -43.5t-1 -73.5h2q4 0 8 -4h8q4 -2 6 -2l5 -4q8 -6 6 -17q0 -2 -2 -2q35 -16 49 -39q12 -16 12 -32q0 -19 -16 -37q-23 -29 -66 -38 q-13 -3 -26 -3q-29 0 -56 14q-33 20 -39 51t13 56q8 12 20 22q-4 4 -6 10q-2 10 6 17q2 4 8 6t17 4h2q4 2 12 2h4q1 44 1 72t-1 41q-27 0 -49 -4v-3v-22q0 -16 -16.5 -16t-16.5 16v10v6q-59 -18 -126.5 -78.5t-102.5 -117.5q-49 -80 -49 -150q0 -40 16 -76zM438 432 q-8 -13 -8 -24q0 -20 25 -35q27 -14 58.5 -8t45.5 26q14 16 2 31q-12 18 -47 33q-14 -2 -41 4q-23 -6 -35 -27zM440 424q0 16 16.5 16t16.5 -16t-16.5 -16t-16.5 16zM465 391.5q0 16.5 16.5 16.5t16.5 -16.5t-16.5 -16.5t-16.5 16.5zM502 424q0 16 16.5 16t16.5 -16 t-16.5 -16t-16.5 16z" />
<glyph unicode="b" horiz-adv-x="942" d="M147 29q0 649 9 852v30q0 63 -4 234q-1 33 -1 64q0 122 13 202q2 10 11 17.5t19.5 5.5t17.5 -11.5t5 -19.5q-13 -77 -13 -196q0 -30 1 -62q4 -170 4 -236v-32q0 -20 -2 -41q57 76 158 120q92 41 176 41q66 0 127 -26q150 -63 217 -258q40 -111 39 -216q0 -62 -13 -122 q-23 -90 -103.5 -185.5t-166.5 -142.5q-91 -51 -190 -51q-40 0 -82 8q-111 25 -168 100v-75q0 -27 -27 -27t-27 27zM201 211q12 -4 14 -16q33 -111 164 -138q39 -8 75 -8q85 0 162 43q78 45 152 131t90 164q13 56 13 114q0 94 -35 193q-61 172 -189 228q-51 22 -107 22 q-73 0 -155 -37q-66 -31 -113 -79t-61 -105q-2 -6 -8 -12q-2 -174 -2 -500zM289 293q0 10 10 14q10 41 66 217q33 109 51 178l-23 -18q-14 -10 -23.5 3t3.5 22q25 18 47 49q-29 -6 -53 -8q-16 -2 -18.5 14t14 18t34.5 4l-28 19q-14 10 -5 23.5t21 5.5l43 -29q-2 29 0 53 q2 16 18.5 14t14.5 -18t0 -35l20 39q8 14 22.5 6t6.5 -22l-18 -35q27 4 47 8q16 2 18 -14.5t-14 -18.5q-25 -4 -64 -12l33 -22q14 -10 5 -23.5t-21 -5.5l-17 10q96 -252 207 -399h2q16 0 16.5 -16.5t-16.5 -16.5q-8 -4 -16 0q-41 0 -97 -4v-9q0 -35 13 -75q2 -6 -2 -12 q0 -8 -8 -15q-27 -16 -66 -20q-2 0 -31 -4q-18 -2 -30 -4q-16 -2 -21 12v8q-10 94 -12 107q-53 -4 -94 -5v-2q-4 -16 -20.5 -12t-12.5 21q-2 6 -2 10zM334 309q53 2 162 10q33 2 51 5q4 16 18 14q10 -2 15 -12q37 2 67 4l-37 51q-2 -2 -6 -4q-27 -4 -57 16q-12 10 -17 13h-4 q0 -2 -2 -11q0 -12 -2 -18q-6 -14 -18 -19q-20 -8 -35 11q-4 4 -12 22l-2 -4q-2 -10 -4 -14q-4 -12 -11 -19q-12 -10 -26 -6q-10 4 -17 14q-2 6 -6 15q-6 20 -10 24q-10 -6 -31 -36l-2 -3zM371 432q10 4 20 0q10 -2 19 -12q4 -8 12 -31q0 2 2 6q2 10 4 15q18 23 37 18 q8 -2 14 -10l6 -12q2 -2 4.5 -6.5t2.5 -6.5v6q2 12 4 19q6 16 20 20t29 -4q6 -2 20 -12q18 -14 29 -12q-29 49 -57 106h-9q-25 2 -34 2q0 -6 -5 -10q-6 -12 -28 -19q-23 -4 -35 19q-2 4 -8 20q-4 -4 -8 -10l-19 -29q-2 -2 -4 -2zM410 565h8q10 2 20 -8q4 -4 8 -12 q2 -4 4.5 -11.5t4.5 -9.5v-2q4 2 6 2v4q2 8 8 15q6 4 14 6q12 2 37 0q-29 61 -55 129q-4 -6 -12 -6q-6 0 -11 4q-12 -49 -32 -111zM451 283q6 -23 10 -95q8 2 16 2q29 4 31 5q27 2 45 12q-10 37 -10 72v12l-45 -4z" />
<glyph unicode="c" horiz-adv-x="983" d="M184 534q18 186 115 324q109 150 260 174q27 4 53 4l291 -125q20 -18 3 -37.5t-36 -3.5q-132 113 -258 113q-23 0 -45 -4q-131 -20 -225 -152q-90 -129 -106 -299q-3 -29 -2 -57q0 -138 63 -260q53 -92 138 -128q59 -25 123 -25q28 0 58 5q94 16 175 77t120 147 q12 25 36 13.5t14 -34.5q-47 -100 -138 -168q-92 -68 -196 -86q-37 -7 -73 -7q-73 0 -140 28q-100 43 -162 153q-71 135 -71 285q0 32 3 63zM342 285q-1 10 -1 20q0 21 3 47v2q-2 8 4 15q10 66 35 135v2q-2 10 8 16l6 15q45 109 105 163q58 55 121 55q19 0 39 -5 q62 -18 86 -76q18 -43 18 -92q0 -16 -2 -33q-6 -63 -33 -109q-28 -50 -60 -50q-3 0 -7 1q-12 2 -21 12q-4 6 -8 15q-4 16 0 55q0 6 2 18.5t2 16.5q0 6 2 10q0 10 2 17q2 33 -4 49q-6 14 -22.5 14t-26.5 -14q-14 -20 -35 -84q-45 -133 -47 -138q-31 -80 -57 -112 q-20 -23 -41 -27q-25 -6 -50 15q-16 12 -18 47zM377 270q2 -6 4 -8t6 -4q-6 6 -10 12zM379 354q12 -59 45 -86l2 2q19 23 39 72q-8 0 -12 6q-33 37 -54 96q-14 -47 -20 -90zM418 500q18 -82 59 -129v4q12 28 35 98q-2 0 -2 2q-33 59 -55 109q-14 -29 -27 -60q-6 -12 -10 -24 zM469 608q10 0 14 -10q18 -41 43 -84q12 37 21 57q0 4 2 9q4 6 6 12v2q0 18 -2 53q-4 33 -4 49q-12 -8 -25 -18q-29 -29 -55 -70zM580 713q2 -4 2 -8q0 -18 2 -54q2 -16 2 -26q14 6 30 6q8 0 15 -2q4 8 18.5 29.5t20.5 33.5q4 10 16 10q-14 10 -33 15q-15 4 -30 4 q-21 0 -43 -8zM657 612q8 -6 13 -16q6 -18 6 -47q23 20 41 29q8 4 16 0v8q0 67 -33 104q0 -6 -2 -10q-6 -16 -22 -41zM668 430q0 -4 2 -6q14 0 32 31q23 39 29 94q-10 -6 -19.5 -12.5t-20.5 -16.5t-19 -16q0 -4 -2 -16.5t-2 -18.5q-4 -31 0 -39z" />
<glyph unicode="d" horiz-adv-x="894" d="M60 524q18 186 116 324q109 150 260 174h6q20 29 45 16q8 -4 17 -12q129 -6 258 -111v117q0 43 10 195q5 81 5 138q0 29 -1 52q0 12 7.5 20.5t18.5 8.5t19 -7.5t8 -17.5q1 -25 1 -55q0 -60 -5 -141q-10 -154 -10 -193q0 -565 59 -1007q2 -12 -5 -20.5t-18 -10.5t-19.5 5 t-10.5 17l-20 177q-51 -76 -131 -126.5t-166 -64.5q-36 -6 -72 -6q-74 0 -142 28q-100 42 -161 152q-71 135 -71 285q-1 32 2 63zM114 518q-3 -29 -3 -57q0 -138 63 -260q53 -92 138 -128q59 -25 123 -24q29 0 59 4q94 16 175 76.5t119 146.5q2 4 5 7q-25 266 -29 571 q-10 0 -16 6q-111 94 -220 109l4 -29q2 -23 -4 -57q-4 -37 -4 -49q14 -2 27 -5q6 0 9 -1t5 -2t4 -1q10 -8 4 -20l-10 -8q0 -2 -2 -2h-8q29 -14 45 -33q21 -25 21 -55q0 -11 -3 -23q-8 -40 -46 -64q-27 -16 -58 -17q-13 0 -27 3q-49 12 -69 51q-10 20 -10 41q0 17 6 35 q10 33 37 58q-12 2 -15 12q-2 16 12 20q6 0 19 2q-2 4 0 6q2 8 8 11q2 2 6 2h2q2 0 3 -1t8 -1q0 12 6 45q4 31 2 50t-6 36q-18 0 -35 -2q-2 -8 -4 -19q-2 -16 -18.5 -14t-14.5 18q0 4 2 9q-119 -27 -205 -148q-89 -129 -105 -299zM438 692q8 16 27 43q18 31 24 43v2 q-35 -18 -47 -57q-4 -14 -4 -31zM459 655q6 -6 16 -10q33 49 60 107q2 8 10 10q-10 4 -23 8q-8 -16 -30 -51q-25 -41 -33 -64zM510 637q27 -2 48.5 14.5t27.5 38.5q6 27 -15 49q-2 5 -6 9q0 -4 -2 -9q-23 -55 -53 -102z" />
<glyph unicode="e" horiz-adv-x="978" d="M80 266q-16 57 -16 119q0 71 20 147q37 144 125 261q59 78 133 127t166 64q23 4 46 4l138 -34q53 -25 93 -60.5t67 -84.5t41 -88q16 -39 35 -100q12 -39 14 -54q4 -17 4 -30q0 -24 -12 -39l-14 -11h-5h-2h-2h-6h-22q-16 0 -78 2q-147 6 -242 9q-111 3 -189 3 q-39 0 -71 -1q-127 0 -162 -11h-12q-11 -54 -11 -102q0 -56 15 -104q35 -127 143.5 -196t243.5 -69t242.5 69t144.5 192q6 25 32 17.5t17 -34.5q-39 -141 -162.5 -219t-273.5 -78q-152 0 -274.5 78t-165.5 223zM143 545q45 8 158 8q34 1 75 1q81 0 189 -3q41 -2 242 -8 q57 -2 78 -2h8q0 8 -2 16q-2 12 -12 47q-37 121 -80 193q-45 72 -127 108q-60 28 -119 28q-19 0 -37 -3q-78 -10 -143.5 -53t-120.5 -117q-74 -96 -109 -215zM322 90q-10 14 0 39q0 2 2 4q2 6 8 8h8q6 0 8 -2q31 66 45 168v4v6q0 8 2 13q6 12 19 12q4 2 14 -8v-2h2 q0 -2 2 -6q6 -8 10 -15q16 -18 25 -18q29 2 49 39q4 6 9 16t7 12q4 6 9 11q8 10 20 8q14 -6 19 -25q2 -6 2 -8q14 -18 34 -18q12 0 25 6q23 25 72 51q14 8 22 -6q6 -12 -4 -21v-2q-35 -35 -69 -49v-2q-11 -15 -11 -30q0 -17 13 -35q2 -2 12 -9q16 -10 18 -24q0 -6 -2 -12 q-4 -6 -10 -9q-4 -2 -12 -2h-6h-2h-3q-45 -10 -51 -12q-23 -8 -28 -27q-6 -14 16 -43q2 0 6 -4l2 -4q2 -2 2 -4q2 0 2 -2q4 -4 4 -10t-4 -12l-4 -5q-6 -2 -12 -2t-17 2q-29 8 -43 15q-6 2 -8 2t-2 2h-2h-2q-50 13 -116 13q-16 0 -33 -1h-4q-4 -4 -11 -8q-18 -8 -32 6z M389 125q15 1 29 1q57 0 108 -13l19 -7h2q6 0 8 -2q-16 29 -8 54q12 31 49 45q14 6 47 12q-4 2 -4 4q-21 28 -21 55q0 10 3 21h-4q-36 0 -60 31l-4 4q-4 -8 -8 -15q-31 -51 -74 -55q-25 -2 -47 25q-10 -68 -27 -115q63 43 107 55q16 4 20 -12t-12 -20q-37 -10 -121 -66z" />
<glyph unicode="f" horiz-adv-x="630" d="M20 886.5q0 26.5 27 26.5h152l-4 58q-11 130 -11 205v12q0 14 2 26q-4 6 -2 15l4 4q4 31 13 59q23 68 63 94q40 25 91 25q39 0 83 -14q104 -31 133 -107q2 -4 2 -10l11 -14q20 -33 24 -62q3 -18 3 -34q0 -59 -42 -80q-14 -7 -28 -7l-62 35q-8 4 -14 12q-29 57 -55 72 q-14 8 -27 0q-18 -14 -30.5 -51t-12.5 -84v-154h176q27 0 27 -26.5t-27 -26.5h-174q2 -127 20 -754q0 -10 -6 -16q-2 -41 -23.5 -65.5t-49.5 -28.5q-25 -2 -43 12q-25 2 -25 27q0 74 -8 210t-10 189q-1 14 -1 31q0 51 5 133q6 113 6 160q0 45 -4 102h-156q-27 0 -27 26.5z M238 1135q39 8 59 16q6 23 14 43q-15 -1 -28 -1q-26 0 -45 3v-8v-53zM240 1100q0 -35 4 -80q18 6 43 24v23q0 23 4 47q-18 -6 -51 -14zM242 1229q23 -2 90 -2q8 10 18 18q8 4 15 8l-37 33q-31 29 -49 43q-16 -18 -27 -53q-6 -20 -10 -47zM246 987l2 -12l4 -62h18q8 6 17 9v2 v82q-18 -13 -41 -19zM250 434q2 -41 4 -98q16 4 45 22h2l-4 117q-12 -8 -21 -12q-12 -6 -26 -8v-21zM250 487q6 2 12 5.5t35 23.5q-2 55 -4 102q-20 -16 -39 -20v-4q-4 -68 -4 -107zM256 303l6 -84l12 4q20 10 31 13l-2 86q-24 -15 -47 -19zM256 633q8 4 31 20q2 2 6 4 q-2 51 -2 101h-2q-6 -4 -10.5 -6t-12.5 -2l-6 -2q0 -43 -4 -115zM256 860q4 -43 4 -78h6q2 0 6 2l17 13v63h-33zM264 184q2 -53 4 -94q16 23 37 39q2 2 4 2l-2 70q-6 -2 -20 -6q-15 -9 -23 -11zM268 31q4 -2 11 -2q14 2 27 15t18 40h-2l-41 -43l-9 -4q-2 -2 -4 -2v-4z M307 1350l43 -39q41 -37 62 -51q2 -2 6 -3q-16 59 -21 97q-21 4 -40 4q-27 0 -50 -8zM432 1343q4 -31 25 -110q20 -18 41 -49q2 57 10 110q-27 31 -76 49zM528 1120q14 -6 27 -2q23 12 23 51q0 14 -3 31q-4 20 -20 49l-4 4q-8 -2 -14 2q-9 -65 -9 -135z" />
<glyph unicode="g" horiz-adv-x="872" d="M79 589q36 167 136 279q92 106 215 127l4 4q15 15 32 15q16 0 34 -13l2 -2q127 -6 252 -102q-4 55 -6 98q0 12 7 20.5t18 8.5t19.5 -7.5t8.5 -17.5q4 -74 24 -288q20 -211 25 -326q3 -56 3 -108q0 -318 -95 -492q-55 -102 -156 -154q-85 -44 -176 -44q-14 0 -29 1 q-109 10 -188.5 81t-95.5 196q-2 12 5 20.5t18 10.5t19.5 -5.5t10.5 -17.5q14 -106 79.5 -164.5t155.5 -66.5q11 -1 22 -1q80 0 155 39q86 44 135 130q74 137 86 370q-61 -84 -156 -133q-92 -49 -190 -53h-20q-113 0 -204 61q-100 68 -139 203q-27 93 -27 187q0 72 16 144z M131 578q-15 -69 -15 -137q0 -84 23 -167q35 -119 120 -175q79 -52 178 -52h14q104 4 197 64.5t140 158.5q4 6 13 11l-4 102q-4 104 -25 322q-10 102 -12 122q-8 2 -12 7q-104 88 -205 108q12 -31 12 -65q0 -23 -6 -48q14 0 22 -2q8 0 15 -2q12 -4 16 -12q6 -14 -8 -25 l-8 -4q39 -35 39 -83t-35 -75q-27 -20 -69 -20q-13 0 -27 2q-37 4 -56 41q-11 22 -11 47q0 12 3 25q4 23 16 41q2 10 11 14h2q6 4 10 6q6 6 14 9q-4 2 -6 6q-6 6 -4 16q2 8 10 12q6 4 15 4h18q6 25 6 48q0 37 -16 69q-20 2 -39 0q-10 0 -21 -2q-2 -16 0 -35q2 -16 -14 -18 t-18 14.5t0 32.5q-88 -25 -160 -104q-90 -102 -123 -256zM461 713q-2 -27 8 -47q6 -17 18 -23q-12 25 -26 70zM483 752q29 -86 43 -109q0 -2 2 -4q23 2 39 12q-35 33 -61 113q-10 -2 -19 -8zM541 762q20 -61 47 -86q4 10 4 24q0 35 -29 62q-6 -4 -12 -2q-4 2 -10 2z" />
<glyph unicode="h" horiz-adv-x="878" d="M170 35q11 141 11 401q0 130 -3 291q-3 156 -3 286q0 259 11 412q0 10 9.5 17.5t19.5 7.5t17.5 -9.5t7.5 -19.5q-12 -165 -13 -410q0 -77 2 -161q88 109 217 158q63 25 119 25q26 0 49 -5q90 -20 138 -108q66 -115 90 -439q16 -207 16 -465q0 -27 -26.5 -26.5t-26.5 26.5 q0 258 -17 461q-25 311 -81 418q-37 66 -103 80q-19 4 -40 4q-46 0 -99 -21q-72 -29 -136.5 -85t-92.5 -113l-5 -4v-27q4 -165 4 -302q0 -245 -12 -396q0 -10 -9 -17.5t-19.5 -7.5t-17.5 9.5t-7 19.5zM291 518q0 6 2 12q4 6 12 9q4 2 8 1t15 -3q29 -6 32 -7q42 -8 56 8 q11 13 11 48q0 9 -1 20q0 6 -2 37v14v7q0 6 3 10t7 6h4h2h2h2h9q16 -2 28 -2q39 2 49 10q20 12 27 21l6 12q6 14 10 20l2 2l3 9q6 20 24 18q18 -4 21 -20q2 -8 0 -21q-2 -2 -3.5 -7t-1.5 -9q-2 -6 -2 -8q2 -33 25 -64q23 -29 39 -41h4h4q6 -2 10 -4q12 -6 13 -18 q0 -8 -6 -13l-5 -4h-4h-2h-2h-4h-14h-15h-4l-8 -4l-10 -10q-14 -12 -19 -21q-20 -44 -20 -80q0 -12 2 -22q2 0 8 -4q10 -4 15 -8q10 -10 8 -25q-2 -6 -8 -10q-2 -2 -5 -2h-6q-2 0 -8 -2q-8 0 -22 2h-37q-80 -8 -117 -58q0 -2 2 -2q10 -8 12 -26v-13q2 -8 -2 -18q0 -2 -2 -6 q0 -4 -2 -10q0 -2 -2 -4q2 -14 -12 -18.5t-22.5 -6.5t-16.5 0q-6 0 -10 2q-6 2 -11 6q-12 8 -22 25q-12 18 -6 35q4 14 20 22q6 4 13 6q4 2 10 2h4l2 2v2q0 78 -31 125q0 2 -30 37q-12 14 -21 23q-4 6 -6 10q-2 2 -3 4t-1 4zM346 498q33 -37 35 -41q14 -24 22 -49 q18 55 58.5 105t85.5 73q16 8 23.5 -7.5t-7.5 -21.5q-47 -25 -88 -82t-47 -110q47 37 113 43h30l-4 8q-2 12 -2 26q0 44 25 97q6 14 22 30q16 14 29 23q-14 14 -25 29q-27 35 -30 71l-2 -2q-10 -12 -33 -31q-20 -12 -70 -14q-12 0 -24 2v-2q2 -31 2 -39q1 -9 1 -17 q0 -48 -20 -71t-57 -23q-13 0 -29 3q-4 0 -8 2v-2z" />
<glyph unicode="i" horiz-adv-x="317" d="M48.5 1242q-3.5 15 12.5 20q20 4 50 8l-56 76q-8 12 5.5 21t23.5 -5l29 -41q-6 57 -19 94q-4 14 11.5 19.5t21.5 -11.5q12 -41 18 -108q18 53 37 94q6 16 21.5 9t7.5 -21q-23 -53 -43 -121h2q66 6 106 18q16 4 20.5 -12t-11.5 -20q-43 -12 -111 -19h-2l70 -90 q10 -14 -3.5 -23.5t-21.5 3.5l-59 77q6 -47 18 -80q4 -16 -11 -21t-22 9q-4 12 -8 27l-2 -17q-4 -16 -19.5 -13t-13.5 18q8 47 21 96v8q-31 -4 -55 -8q-14 -2 -17.5 13zM137 1026q0 27 26.5 27t26.5 -27q0 -168 10.5 -499.5t10.5 -499.5q0 -27 -26.5 -27t-26.5 27 q0 168 -10.5 499.5t-10.5 499.5z" />
<glyph unicode="j" horiz-adv-x="321" d="M-89.5 -292q11.5 24 34.5 13q61 -27 119 -27q12 0 24 1q37 2 53 18q18 16 17 54v6v4q0 207 -12.5 620.5t-12.5 620.5q0 27 26.5 26.5t26.5 -26.5q0 -207 12.5 -620.5t12.5 -620.5v-4v-2v-12q0 -53 -33 -85q-31 -29 -84 -32q-15 -1 -30 -1q-71 0 -140 31q-25 12 -13.5 36z M45 1335.5q10 12.5 23 1.5q23 -18 47 -43q-16 66 -23 117q-2 16 14.5 18.5t18.5 -14.5q7 -57 27 -131q14 41 28 96q4 16 20.5 12.5t12.5 -20.5l-33 -106q18 6 54 20t45 17q16 6 21 -9.5t-9 -19.5q-106 -41 -111 -43q39 -39 66 -62q12 -10 2 -22t-23 -2l-41 39l15 -41 q4 -16 -11.5 -21.5t-21.5 8.5l-16 52q-18 -43 -41 -84q-8 -14 -22.5 -6t-6.5 22q27 47 47 100l-49 -8q-16 -2 -18.5 14.5t14.5 18.5q23 2 45 8q-43 41 -72 66q-12 10 -2 22.5z" />
<glyph unicode="k" horiz-adv-x="829" d="M135 1403q0 27 26.5 27t26.5 -27q0 -211 13 -813q27 35 61 72v2q0 12 2 20q4 12 10 18q10 12 27 7q2 -2 4 -2l57 53l44 41l47 43q16 14 39.5 37.5l44.5 44.5l36 43q16 20 37 3.5t4 -36.5q-49 -61 -208 -207v-2l294 -514q12 -18 46 -87t59 -101q14 -23 -7.5 -38.5 t-37.5 5.5q-25 37 -63 111.5t-42 84.5l-288 504l-29 -28q12 -29 18 -80q8 -74 13 -86h2q6 2 10 2q14 2 27 -4q10 -6 14 -18.5t-2 -24.5q-2 -2 -4 -7q57 -25 69 -69q2 -9 2 -17q1 -26 -17 -46q-24 -28 -69 -31q-9 -1 -17 -1q-36 0 -62 15q-32 18 -39 53q-2 9 -2 17 q0 35 34 61q-12 6 -16 14q-4 12 2 23q4 6 10 10q10 8 27 14q-6 16 -14 91q-4 37 -11 59l-16 -16q2 -16 4 -19q8 -14 -6 -22.5t-23 6.5q0 2 -2 4q-37 -45 -63 -90l-4 -4q6 -276 6 -473q0 -27 -26.5 -27t-26.5 27q0 229 -10.5 689t-10.5 689zM313 356.5q4 -18.5 26.5 -32 t57.5 -9.5q33 4 46.5 19.5t9.5 34.5q-8 37 -70 55q-2 -2 -6 -4q-37 -8 -52.5 -26.5t-11.5 -37zM328 366.5q0 16.5 16 16.5t16 -16.5t-16 -16.5t-16 16.5zM379 397.5q0 16.5 16.5 16.5t16.5 -16.5t-16.5 -16.5t-16.5 16.5zM385 358.5q0 16.5 16.5 16.5t16.5 -16.5 t-16.5 -16.5t-16.5 16.5z" />
<glyph unicode="l" horiz-adv-x="237" d="M152 33q14 186 14 477q0 97 -2 205q-4 257 -4 428.5t4 257.5q0 12 8 19t19.5 7t18.5 -8t7 -18q-4 -85 -4 -256.5t4 -429.5q2 -109 2 -206q0 -292 -14 -480q0 -10 -9.5 -17.5t-19.5 -7.5t-17 9.5t-7 19.5z" />
<glyph unicode="m" horiz-adv-x="1415" d="M127 784v95v28q2 6 2 11q0 6 2 12q12 23 37 12q18 -10 14 -31q-2 -2 -2 -6v-26v-13q57 100 162 146q48 21 93 21q26 0 50 -7q76 -23 115 -104q23 -51 39 -117l2 4q14 25 37 49q-23 39 -23 141q0 10 9 15q0 6 2 12q10 12 24 4q47 -35 76 -86q0 -2 2 -2q84 61 164 74 q18 3 35 3q72 0 118 -48q113 -117 132 -453q23 2 43 -6q6 -2 24.5 -12.5t30.5 -16.5q14 -4 10 -18q8 -12 -4 -23q-53 -47 -94 -55h-6q0 -78 -3.5 -205t-3.5 -162q0 -27 -26.5 -26.5t-26.5 26.5v43q-2 -2 -6 -2q-78 0 -123 43q-10 12 0 25q2 2 6 2q0 2 2 4q29 37 56 49 q21 10 49 10q10 0 20 -1q2 80 2 146q0 100 -4 171q-6 117 -22 205l-4 -4q-27 -16 -39 -17q-20 -2 -43 19q-10 8 -4 20q2 82 47 125q-23 47 -49 76q-31 31 -82 31q-13 0 -27 -2q-68 -10 -141 -64q-72 -51 -113 -119q-23 -37 -31 -69q10 -70 15 -156q0 -37 2 -78q27 20 49 21 q25 0 47 -17q6 0 10 -2q6 -4 8 -12q12 -10 2 -23q-6 -8 -16 -6q-18 -25 -35 -37q-24 -17 -53 -17q-6 0 -12 1q0 -35 -1 -104.5t-1 -100.5q0 -27 -27 -26.5t-27 26.5q0 31 1 106.5t1 141.5t-2 125q-2 47 -6 88q-6 4 -8 12q0 6 -2 11q-17 -12 -39 -12q-20 0 -45 10 q-6 -2 -12 -3q-12 2 -12 17q-8 8 -3 18q4 4 9 6q4 12 10 21q-8 -2 -14 2q-23 12 -43 31q-12 10 -2 22t22 2l39 -26q8 -4 8 -13q29 37 72 37q-14 72 -39 121q-29 61 -80 78q-16 4 -33 4q-36 -1 -76 -17q-60 -24 -105.5 -78.5t-57.5 -117.5q-4 -14 -19 -18q0 -37 2 -76 q7 1 14 1q51 0 97 -50q10 -12 -2 -23q-8 -8 -19 -2q-23 -23 -88 -39v-57q4 -160 9 -279q66 -16 94 -55q10 -14 -2 -23q-6 -6 -15 -4q-41 -29 -71 -37q4 -51 8 -67q4 -27 -21.5 -32t-31.5 20q-12 63 -23 475q-4 164 -4 284zM182 592q52 15 66 29q-24 20 -51 20q-7 0 -15 -2 v-47zM195 188q2 -27 2 -49q20 4 49 27q-16 14 -51 22zM215 541q-8 14 6.5 22t22.5 -6l8 -14l2 -4h2l12 -11q12 -8 3 -21t-23 -3l-10 8q-6 4 -8.5 6t-6.5 8zM228 96q6 14 20 8l20 -8q14 -6 8 -20.5t-20 -7.5l-20 8q-14 6 -8 20zM240 702v23q0 16 16 16t16 -16v-23 q0 -16 -16 -16t-16 16zM248 244l4 24q2 16 18.5 14t14.5 -18l-4 -24q-2 -16 -18.5 -14t-14.5 18zM272 121.5q3 15.5 19 13.5q8 -2 18 -4q6 -2 10 -2q2 0 25 -12q16 -6 9 -21.5t-21 -7.5q-8 2 -17 6l-6 4h-6l-20 4q-14 4 -11 19.5zM272 565q-8 12 5.5 21.5t23.5 -4.5 q4 -6 10 -17l2 -4h2q14 -6 17 -8q16 -6 9 -21.5t-22 -7.5q-6 2 -16 6q-8 4 -12 9q-4 2 -8 10t-11 16zM274 680l17 22q8 12 21 3t3 -23l-16 -23q-8 -12 -21.5 -2.5t-3.5 23.5zM287 231l20 23q10 12 22.5 2t2.5 -23l-21 -22q-10 -12 -22 -2t-2 22zM408 682q2 16 18 14l27 -4 q16 -2 14 -18.5t-18 -14.5l-27 5q-16 2 -14 18zM462 605q-9 13 3 24l20 14q14 8 23.5 -5.5t-2.5 -23.5l-21 -14q-14 -8 -23 5zM528 692q18 -7 32 -7q24 0 36 22q2 4 6 6q-2 16 -6 30h-4q-46 0 -64 -51zM530 594v24q0 16 16.5 16t16.5 -16v-24q0 -16 -16.5 -16t-16.5 16z M600 1013.5q4 16.5 21 12.5l22 -6q16 -4 12 -20.5t-20 -12.5l-23 6q-16 4 -12 20.5zM620 1084.5q9 13.5 21 5.5l23 -15q14 -10 4.5 -23t-21.5 -5l-22 14q-14 10 -5 23.5zM672 420q27 -6 47 8q12 9 26 29q-12 8 -22 8q-18 0 -45 -23q-2 -2 -6 -4v-18zM688 989q0 -74 12 -104 q20 20 41 37q-2 2 -4 6q-20 36 -49 61zM735 537l6 28q2 2 15 29q6 14 21.5 7t6.5 -23q-2 -6 -5 -10.5t-4 -6.5t-1 -4q-2 -2 -2 -4t-1 -8t-3 -17q-4 -14 -19.5 -10.5t-13.5 19.5zM735 1034q0 6 2 15v12q2 4 4 10l9 12q8 14 22 6t6 -22l-8 -12v-2l-2 -4v-17l4 4l23 21 q12 10 22 -2.5t-2 -22.5l-22 -20q-12 -10 -23 2q-4 4 -4 10q-6 -8 -16 -8q-16 2 -15 18zM760 387q-8 12 5 21t23 -5q14 -23 35 -49q8 -14 -5 -23t-23 3zM778.5 508q-8.5 14 5.5 22q6 4 17 9l2 2l2 2l8 14q8 14 22.5 6t6.5 -22l-8 -15q-4 -6 -7.5 -10t-11.5 -6q-8 -4 -14 -8 q-14 -8 -22.5 6zM811 428q-8 12 5.5 21t23.5 -5l30 -47q8 -12 -5 -21t-23 5zM969 733.5q-4 16.5 12 20.5l25 6q16 4 20 -12.5t-12 -20.5l-25 -6q-16 -4 -20 12.5zM989 819q-10 14 3.5 23.5t21.5 -2.5l18 -25q10 -14 -3 -23.5t-21 3.5zM999 39l11 18q8 14 22 6t6 -22l-10 -18 q-8 -14 -22.5 -6t-6.5 22zM1022 236q-8 14 6.5 22t22.5 -6l8 -12q4 -6 5 -10.5t3 -6.5t8 -28q4 -16 -12 -20.5t-21 11.5l-6 25v2q-2 2 -6 8t-8 15zM1042 641l7 21q6 16 21 10t11 -19l-6 -20q-6 -16 -21.5 -11t-11.5 19zM1065 -18q0 27 2 59q2 16 18.5 14.5t14.5 -18.5 q-2 -31 -2 -55q0 -16 -16.5 -16.5t-16.5 16.5zM1067 117q31 -23 88 -23q4 0 6 -2q2 20 2 68q-31 6 -53 -4q-20 -10 -43 -39zM1067 281q-2 14 13.5 17t19.5 -13l4 -23q2 -8 2 -12v-12v-23q0 -16 -16.5 -16t-16.5 16v25v8q0 2 -2 8zM1083 731q6 -4 11 -4q6 0 26 12q8 4 17 0 q-10 47 -25 86q-29 -33 -29 -94zM1100 618v23q0 16 16.5 16t16.5 -16v-23q0 -16 -16.5 -16t-16.5 16zM1219 483q0 -31 2 -63h2q28 6 67 39q-8 4 -20 12q-18 8 -23 10q-14 6 -28 2zM1270 544.5q0 16.5 16.5 16.5t16.5 -16.5t-16.5 -16.5t-16.5 16.5zM1298 352l2 33 q2 16 17.5 15t15.5 -15l-2 -33q-2 -16 -17.5 -15t-15.5 15zM1317 530l6 23q4 16 20.5 12t12.5 -20l-6 -23q-4 -16 -20.5 -12t-12.5 20zM1337 414q-10 14 3.5 23t21.5 -3q6 -8 10 -12q0 -2 1 -3t2 -1t4 -3t10 -7q12 -8 2.5 -21.5t-23.5 -3.5q-16 12 -17 13t-14 18z" />
<glyph unicode="n" horiz-adv-x="878" d="M199 770v94v29q2 6 2 10q0 6 2 12q12 23 37 13q18 -10 14 -31q-2 -2 -2 -6v-27v-41q49 74 133 129q86 59 172 72q19 3 37 3q75 0 123 -48q119 -115 139 -457q4 -117 4 -183.5t-3 -171t-3 -140.5q0 -27 -26.5 -27t-26.5 27q0 37 3 141t3 169.5t-4 180.5q-18 319 -123 424 q-32 32 -84 32q-15 0 -33 -3q-72 -10 -149 -62q-76 -51 -121 -118q-35 -55 -35 -99q0 -10 2 -20q2 -14 -6 -25q0 -78 2 -160q10 -408 23 -464q4 -27 -22 -32t-32 19q-12 63 -22 475q-4 164 -4 285zM311 551q2 16 18.5 14t14.5 -18q-2 -18 13.5 -30.5t48.5 -18.5q16 -2 36 -4 q-12 10 -16 24q-3 11 -3 22q0 33 32 64q18 16 39 23q25 6 43 -11q4 -4 8 -10q20 16 42 16q11 0 23 -4q43 -14 52 -49q1 -5 1 -11q0 -36 -49 -62q-4 -2 -16 -11q10 2 18 7q33 14 80 63q12 10 23.5 -1t1.5 -24q-41 -39 -70 -57l4 -4h2q17 0 17 -16q0 -61 8 -187 q10 -125 10 -188q0 -6 -4 -10h4h2q16 0 16.5 -16.5t-16.5 -16.5q-23 0 -87 1h-58.5h-48.5q-43 -1 -84 -5q-4 -2 -8 -2q-16 -2 -19 14v8q-15 51 -15 136q0 26 1 55q8 138 8 182v14q0 8 6 15q4 4 10 6q12 2 27 4q-14 0 -27 4q-88 17 -88 76v8zM408 240q-2 -29 -1 -55 q0 -77 13 -122q37 4 84 7q-13 122 -15 194q-43 -4 -79 -4q0 -12 -2 -20zM412 293q36 0 77 4q2 78 15 135q-55 0 -88 -4q1 -14 1 -34q0 -40 -5 -101zM457 528q6 -16 39 -24q0 8 6 12q6 6 14 4q0 27 4 47q0 20 -6 27q-4 2 -12 0q-12 -2 -25 -14q-27 -27 -20 -52zM522 266 q2 -72 15 -196h41q20 0 45.5 -1t40.5 -1q-4 4 -5 10q0 61 -8 186l-2 15zM522 299q16 2 125 12q-6 78 -6 131q-39 -8 -102 -8q-15 -57 -17 -135zM549 518q2 -8 4 -18q4 2 45 24q35 18 31 39q-4 16 -27 23q-25 8 -39 -8q-6 -6 -10 -15q0 -20 -4 -45z" />
<glyph unicode="o" horiz-adv-x="925" d="M54 479q7 121 59 234q51 117 136 195q85 76 205 104q37 9 76 9q87 0 185 -42q25 -10 14 -35q-2 -2 -2 -4q94 -82 139 -200q41 -109 41 -218v-19q-4 -118 -47 -227q-80 -197 -239 -266q-66 -28 -134 -28q-121 0 -249 86q-98 66 -144 178q-40 97 -41 201q0 16 1 32z M108 478q-1 -15 0 -31q0 -94 35 -181q39 -98 123 -153q115 -77 221 -77q58 0 113 23q139 61 211 238q33 84 40 176q2 24 2 48q-1 67 -15 133q-20 89 -76.5 168t-145.5 130q-2 2 -6 4q-47 11 -91 11q-97 -1 -177 -53q-118 -76 -182 -222q-46 -104 -52 -214zM152 305 q-16 33 4 55q16 18 41 9q4 0 8 -2q72 20 96 45q16 16 8 34q-4 12 -28 41l-17 23q-8 14 -2 29q2 6 8 8q2 2 4 2h5h4h14q25 -2 43 -2q27 0 43 3t18 7q6 10 -6 33l-6 10l-6 12q-8 18 -2 31q4 12 20 14h19q37 -2 51 -2q72 4 102 56q8 14 23 6q8 4 16 0q14 -9 6 -23 q-4 -6 -12 -20.5t-11 -20.5t-8 -18t-7 -19.5t-3.5 -18.5t-1.5 -22q2 -16 4.5 -22t14.5 -21q2 0 4 -2l4 -2q6 -4 10 -8q10 -10 2 -22.5t-26 -16.5q-8 -4 -29 -8q-37 -8 -43 -14q-25 -27 -22 -45q0 -8 10 -23q6 -10 8 -16q4 -16 -10 -25q-6 -6 -25 -10l-41 -6 q-109 -12 -182 -35q2 -29 -16 -39q-2 -2 -5 -2q-10 -6 -22 -6q-6 0 -12 2q-16 2 -29 18q-8 10 -12 25q-4 4 -6 8zM193 303q6 -4 10 -6v2q-2 2 -4 2q-4 2 -6 4v-2zM272 338q68 16 160 29q27 2 39 6h4q-14 20 -14 45q0 29 31 61q14 16 59 27q16 2 20 4q-2 0 -2 2 q-16 18 -20 27q-4 12 -6 32v8q0 33 14 68q-35 -20 -84 -24q-16 0 -53 2h-6q0 -4 4 -9l6 -12q13 -22 13 -40q0 -13 -7 -23q-10 -16 -41 -23q-20 -4 -49 -4h-39l4 -6q29 -33 35 -49q6 -18 4 -33q39 29 107 86q12 10 22 -2t-2 -23q-117 -100 -199 -149z" />
<glyph unicode="p" horiz-adv-x="948" d="M121 -385q0 147 7 442t7 443q0 29 -4 133q-2 4 -2 10v4q-2 63 -4 107q-1 25 -1 48q0 149 23 210q10 25 35 14.5t15 -35.5q-19 -49 -19 -186v-14q51 84 144.5 139t195.5 67q16 6 31 7q8 0 16 -3h6q160 0 256 -110q103 -117 103 -331q0 -29 -2 -60q-14 -207 -131 -330 t-271 -139q-23 -3 -46 -3q-83 0 -156 35q-92 45 -140 138q-10 -485 -10 -586q0 -27 -26.5 -27t-26.5 27zM182 647q6 -121 6 -147v-103q10 -6 11 -20q0 -152 95 -229q80 -66 187 -66q19 0 39 2q135 14 238.5 122.5t115.5 297.5q2 32 2 62q0 190 -88 290q-66 74 -170 88 q9 -29 9 -70q0 -33 -6 -73q2 0 6 -2q8 -2 12 -6q10 -6 10 -17q4 0 8.5 -2t8.5 -6q20 -12 30 -33q7 -15 7 -31q0 -27 -19 -59q-29 -45 -76 -61q-17 -6 -33 -6q-36 0 -67 28q-25 29 -25 59q0 34 25 66q22 29 55 41v2q-2 2 -2 4q-6 14 8 21q6 4 17 4h2q7 41 7 73q0 36 -9 60 q-2 6 -4 10q-12 2 -27 0q-27 0 -53 -6q-14 -23 -6 -47q6 -14 -8.5 -20t-20.5 8q-10 25 -4 51q-111 -31 -190.5 -110t-90.5 -175zM518 655q37 35 57 86q-25 -8 -40 -30q-23 -29 -17 -56zM535 627q14 -10 30 -15q35 70 60 127q-4 0 -9 2q-4 0 -6 2q-23 -70 -73 -114zM602 616 q33 14 53 48q23 35 11 59q-3 6 -9 10z" />
<glyph unicode="q" horiz-adv-x="903" d="M76 506q2 215 117 342q113 125 270 141q24 3 47 3q80 0 154 -32q96 -42 145 -131q0 137 22 195q10 25 35 15t15 -35q-20 -49 -20 -186q0 -23 1 -50q2 -49 6 -138t4 -118v-100q6 -8 7 -21q-2 -27 -9 -53q0 -61 -6 -317.5t-6 -393.5q0 -27 -26.5 -26.5t-26.5 26.5 q0 100 10 586q-57 -84 -152.5 -136t-195.5 -59q-14 -1 -27 -1q-150 0 -247 104q-117 127 -117 369v16zM129 506v-9q0 -226 102 -339q82 -87 206 -87q13 0 26 1q121 6 224.5 85t129.5 189q2 90 2 166q0 29 -4 121q-16 6 -16 24q0 141 -99 218q-83 65 -191 65q-20 0 -40 -2 q-137 -16 -237.5 -127t-102.5 -305zM344 143.5q4 16.5 21 12.5h2v12q0 16 2 51q-6 0 -11 2q-14 8 -6 23q8 16 8 30q0 8 -10 37q-4 14 12 21h9q-6 51 -6 85q0 20 2 34q2 8 12 12l4 4q-9 29 -9 54q0 47 32 81l-3 4q-8 14 9 21q12 6 18 -4q10 2 16 -7q10 -14 -2 -22 q12 -35 19 -59q2 -15 2 -28q0 -30 -12 -50l8 -4q25 -8 31 -27q4 -12 2 -43q-2 -12 -2 -21q4 -6 12 -22l16 -29q10 -14 -3 -23t-21 3l-2 2q0 -10 4 -37q8 -39 8 -59q2 -23 -4 -39q12 2 16 2q4 -2 7 -2t5 -2q10 -4 11 -15q0 -18 -19 -24q-8 -4 -24 -2q-2 0 -5.5 1t-8.5 1t-7 2 q-31 -2 -67 -6q-10 0 -17 -2h-2h-2h-2h-2q-2 0 -6 2q-6 4 -8 8q-8 2 -15 2q-16 4 -12 20.5zM397 436v-7q0 -26 9 -110v-12q0 -26 -5 -90q-2 -33 -2 -49v-14q18 0 54 2h8q4 2 6 6q8 10 6 35q0 16 -6 55q-8 41 -8 59v43q-4 9 0 17q0 6 2 14q2 25 0 31q-2 2 -12.5 6t-51.5 14z M416 467l4 -2q12 14 12 39q0 11 -2 24q-2 17 -10 37q-11 -19 -11 -46q0 -21 7 -46v-6z" />
<glyph unicode="r" horiz-adv-x="696" d="M158 983q2 12 10 18.5t19.5 5.5t17.5 -9.5t6 -18.5q-5 -37 -5 -81q0 -15 1 -30q47 94 133 131l4 5q18 27 40 27q7 0 15 -3q10 -4 17 -12h9q96 0 166 -83q73 -87 85 -249q0 -10 -7 -19.5t-17.5 -9.5t-19.5 7.5t-9 17.5q-10 133 -61.5 202.5t-119.5 78.5q5 -21 4 -47 q0 -19 -2 -40q8 -2 13 -12q6 0 10 -2q10 -2 14 -10q4 -10 0 -19l4 -4q23 -20 19 -53q-2 -29 -24.5 -53.5t-53.5 -34.5q-17 -4 -31 -4q-23 0 -39 12q-25 18 -20 56q4 47 41 77q-4 4 -4 11q0 10 6 14v2q2 10 10 14q4 2 9 4t14 2q2 19 2 36q0 29 -6 53q-27 -4 -54 -17 q-4 -16 -6 -39q-2 -16 -18.5 -14t-14.5 18q0 6 2 13q-102 -80 -102 -250v-2v-2q6 -96 6 -202t-2 -242t-2 -201q0 -27 -26.5 -27t-26.5 27q0 66 2 200.5t2 240t-6 200.5q-7 142 -7 227q0 58 3 90zM369 745q-2 -18 8 -24q12 -10 41 -2q20 6 35.5 23.5t17.5 35.5q2 16 -8 27 q-4 4 -10 6q-4 0 -9 -2q-18 -2 -32 0q-39 -18 -43 -64z" />
<glyph unicode="s" horiz-adv-x="817" d="M135 311q0 12 8.5 19.5t19.5 7.5t18 -8t7 -19v-13q0 -120 69 -186q73 -70 183 -77q16 -1 31 -2q89 0 163 40q88 46 103 124q7 34 7 64q0 83 -52 147q-55 68 -186 129q-35 16 -115 51q-72 29 -104 47q-119 59 -129 129q-2 16 -2 30q0 82 66 138q78 66 192 86q34 5 68 5 q76 1 147 -25q102 -36 137 -130q10 -27 -15.5 -36t-33.5 16q-27 70 -111 102q-56 21 -120 21q-32 1 -66 -5q-102 -16 -160 -69q-50 -45 -50 -105q0 -10 1 -20q6 -43 98 -90q33 -16 103 -45l116 -51q141 -68 205 -146q66 -79 65 -183q0 -35 -7 -73q-23 -102 -127 -157 q-90 -47 -191 -47q-18 0 -37 2q-129 10 -217 94q-84 80 -84 222v13zM369 145l28 76q18 51 36 92t34 76v2q-20 -14 -37 -24q-14 -8 -22.5 6t6.5 22l45 31l-49 45q-10 12 1 23.5t23 1.5q18 -20 33 -33q2 23 6 41q4 14 19.5 11t13.5 -19q-4 -18 -6 -41l18 12q12 8 21.5 -5 t-4.5 -24l-21 -14q20 -14 43 -25q14 -6 7 -21.5t-23 -6.5q-10 6 -23 12q12 -45 52 -135t42 -98q6 -14 -8 -21q-12 -6 -20 4q-23 -4 -49 -8q2 -20 2 -51q0 -16 -17 -17h-6h-6h-4q-4 -2 -8 -2l-23 2h-2q-16 -2 -18 15q0 2 -2 34q-2 10 -2 17q-53 2 -58 2q-6 -4 -14 0 q-14 6 -8 20zM408 158h26q16 0 23 -2q2 2 4 2q4 0 8 -2q63 0 102 8l-12 29q-19 -8 -54 -8q-10 0 -22 1t-22 1q-30 0 -45 -9zM430 217q20 6 57 2q41 -4 58 2l-19 45q-18 -8 -55 -4q-8 0 -12 -2q-8 -2 -15 -12q-2 -4 -4 -4zM461 295h14q29 -4 39 0q-14 37 -25 67 q-14 -30 -28 -67zM481 123q2 -6 2 -14v-11v-8l15 -2q4 2 6 2q0 14 -2 35q-8 -2 -21 -2z" />
<glyph unicode="t" horiz-adv-x="503" d="M-29 944.5q0 26.5 27 26.5h184v53q0 28 -1 90q0 31 -0.5 58.5t0.5 51.5q1 48 7 91q2 10 10.5 17t19.5 5t18.5 -10t5.5 -20q-6 -41 -8 -86q-1 -22 0 -49v-58q2 -62 2 -90v-53h59l2 2q35 29 57 8q6 -4 11 -10h92q27 0 26.5 -26.5t-26.5 -26.5h-78q2 -14 2 -89v-6q6 0 12 -2 q10 -4 13 -14q2 0 2 -2q8 -8 4 -19q0 -2 -2 -4q65 -22 65 -79v-5q1 -40 -31 -66q-26 -22 -62 -21q-8 0 -17 1q-45 6 -69 35q-21 25 -21 56q0 5 1 10q6 41 41 61q-6 2 -10 6q-6 10 0 21q2 4 8 6q0 2 2 4q0 6 6.5 10t14.5 4q4 2 10 2v2q0 74 -2 89h-39q0 -2 1 -11.5t1 -13.5 q2 -16 -14 -18.5t-19 14.5q0 4 -1 13t-1 16h-38q0 -141 11 -439.5t11 -453.5q0 -27 -26.5 -27t-26.5 27q0 156 -11.5 453.5t-11.5 439.5h-184q-27 0 -27 26.5zM309 709q-2 -23 10 -41q10 29 15 77q-23 -12 -25 -36zM348 649q8 -2 21 -4h4q8 60 20 109q-6 -2 -12 -2 q-8 2 -14 2v-4q-4 -66 -19 -101zM408 649q34 14 34 47q0 27 -20 43q-8 -41 -14 -90z" />
<glyph unicode="u" horiz-adv-x="849" d="M110 634q4 118 9.5 195.5t19.5 206.5q2 12 10.5 19.5t19.5 5.5t18.5 -10.5t5.5 -18.5q-14 -129 -21.5 -206.5t-9.5 -191.5v-28q0 -98 12 -184q14 -98 47 -186q43 -115 117 -156q38 -20 82 -20q31 0 65 10q76 23 148 88t119 151q-2 59 -4 215q-4 442 -7 498q0 12 7.5 20.5 t18.5 8.5t19.5 -7.5t8.5 -17.5q2 -59 6 -502q2 -182 2 -196q10 -14 4 -29l-2 -2q6 -145 24 -266q2 -10 -5 -19.5t-17 -11.5t-19.5 5t-11.5 18q-12 92 -20 194q-111 -154 -256 -199q-41 -12 -79 -12q-57 0 -108 27q-92 49 -141 186q-34 89 -50 193q-13 84 -13 179q0 21 1 43z M278 244.5q3 15.5 17 13.5q16 -3 34.5 -3t39.5 3l-74 82q-10 12 2 22.5t22 -2.5l39 -41q-14 49 -20 89q-2 14 13.5 17t19.5 -13q8 -45 26 -111q10 45 17 86q2 16 18.5 14t13.5 -18q-8 -53 -24 -115q6 2 43 12t57 13q16 2 19.5 -13.5t-11.5 -19.5l-53 -12q-35 -8 -47 -12 q29 -37 47 -70q8 -14 -6 -22.5t-22 6.5q-8 16 -19 30q4 -18 8 -35q2 -16 -13 -19t-19 11q-4 23 -11 49l-20 -57q-6 -14 -21.5 -9t-11.5 21q23 59 31 84q-24 -3 -44.5 -3t-37.5 3q-16 4 -13 19.5z" />
<glyph unicode="v" horiz-adv-x="1005" d="M37 1001q-4 27 21.5 32t31.5 -19q8 -45 45 -123l6 2q20 8 29 12q18 4 35 2q10 -4 20 -12q6 -2 8 -8l3 -2q10 -14 -3 -23q-2 -2 -4 -2q-18 -55 -55 -67q70 -190 176 -435q27 16 94 17q16 0 17 -17q0 -10 -8 -14q-16 -37 -31 -53q-12 -14 -31 -25l76 -162q96 215 184 457 q-51 4 -73 80v4q-10 4 -11 14q1 17 17 17q10 0 28 2q23 4 33 4q29 0 45 -12q59 168 115 344q6 25 31.5 17.5t17.5 -34.5l-8 -28q23 -6 37 -17q29 -18 39 -55q4 -16 -13 -20q-20 -27 -49 -33q-12 -2 -55 -2q-145 -446 -318 -819q-12 -25 -34 -15q-20 10 -17 31 q-129 281 -196 440q-10 -8 -25 -10q-6 -2 -55 -2h-6h-9q-14 4 -12 20q14 66 17 70q8 20 26 29q8 4 19 4q-43 104 -76 201q-4 10 -38 88.5t-44 121.5zM38 539.5q7 15.5 21 7.5l23 -10q16 -6 9 -21.5t-21 -7.5l-23 10q-16 6 -9 21.5zM62 614.5q8 14.5 22 6.5q23 -12 47 -31 q12 -8 3 -21.5t-23 -3.5q-20 14 -43 27q-14 8 -6 22.5zM147 860l15 -37q25 8 39 49q-2 2 -4 2q-6 2 -17 -2q-8 -2 -26 -10zM150 952v41q0 16 16 16.5t16 -16.5v-41q0 -16 -16 -16t-16 16zM156 401l10 29q6 14 21.5 9t11.5 -21l-11 -29q-6 -14 -21 -9t-11 21zM170 500h39 q10 2 18 12l-18 45q-12 2 -21 -2q-6 -2 -10 -10q-4 -10 -8 -45zM197 950q2 8 2 17q2 6 2 10l10 22q6 14 20.5 8t8.5 -20q-2 -8 -4 -14q-2 -4 -3.5 -5t-1.5 -5q-2 -10 -2 -17q-2 -16 -18 -14t-14 18zM203 414q-4 16 12.5 20t20.5 -12q6 -27 10 -51q2 -14 -13.5 -17.5 t-19.5 13.5q-4 20 -10 47zM233 805q-8 14 6.5 22t22.5 -6q10 -18 20.5 -32.5t-3 -23.5t-21.5 3q-14 18 -25 37zM258.5 888.5q4.5 16.5 20.5 12.5q23 -6 43 -10q16 -4 12.5 -19.5t-17.5 -13.5q-25 4 -47 10q-16 4 -11.5 20.5zM365 330l14 -33q10 6 18.5 15.5t18.5 29.5 q-37 -2 -51 -12zM383 426l2 29q2 16 18.5 14t14.5 -18l-2 -29q-2 -16 -18.5 -14t-14.5 18zM426 272q-10 12 2.5 22.5t22.5 -1.5l10 -12h2q10 -2 16 -5q16 -4 12 -20t-20 -12q-6 2 -14 4t-12.5 4t-8.5 8zM430 424v22q0 16 16.5 16t16.5 -16v-22q0 -16 -16.5 -16t-16.5 16z M455 335.5q8 14.5 22 6.5l23 -12q14 -8 6 -22.5t-23 -6.5l-22 12q-14 8 -6 22.5zM505 607.5q-7 15.5 7 21.5l20 10q16 8 23 -7.5t-6 -21.5l-21 -10q-16 -8 -23 7.5zM542.5 557q-10.5 12 2.5 23l20 16q12 10 22.5 -2.5t-1.5 -22.5l-21 -16q-12 -10 -22.5 2zM590 752v14 q0 16 16.5 16t16.5 -16v-16v-2v-3l8 -12q8 -14 -6.5 -22t-22.5 6q-2 4 -8 12q-2 6 -3 10t-1 13zM610 645q17 -53 51 -53h3l14 43q-10 14 -33 14q-8 0 -27 -4h-8zM649 727v21q0 16 16.5 16t16.5 -16v-21q0 -16 -16.5 -16t-16.5 16zM815 874q29 0 39 3q19 4 31 22 q-6 16 -21 27q-10 6 -28 12zM854 809q-4 14 11.5 19t21.5 -11l8 -29q4 -14 -11.5 -19t-21.5 11zM894.5 972q-9.5 13 2.5 21l16 13q14 10 23.5 -3.5t-2.5 -21.5l-16 -12q-14 -10 -23.5 3zM913 827q-8 12 5.5 21.5t23.5 -4.5l12 -19q8 -12 -5 -21t-23 5zM931 937q-7 15 9 21 l23 11q14 8 21 -7.5t-9 -21.5l-23 -10q-14 -8 -21 7z" />
<glyph unicode="w" horiz-adv-x="1306" d="M45 995q-2 10 5 19.5t17.5 11.5t19.5 -5t11 -17q6 -43 31 -118t31 -95q96 -354 223 -697q113 315 252 920q2 2 2 4q2 20 22 24q10 2 19.5 -5t11.5 -17q6 -43 30.5 -118t31.5 -95q98 -362 229 -711q113 313 252 920q6 27 32.5 20.5t20.5 -32.5q-154 -664 -285 -1004 q-10 -25 -34.5 -14.5t-14.5 34.5q-145 377 -254 775q0 2 -34 108q-131 -563 -252 -885q10 -25 -15 -34q-8 -2 -14 -2t-14 2q-25 10 -15 34q-141 371 -248 760l-28 90q-27 82 -33 127zM834 931.5q0 22.5 6 41.5q8 20 22 28q2 8 10 11q8 0 13 -2q14 0 30 -9q6 8 15 13 q25 14 47 8l8 -4q4 0 8 -2h7l71 -17q4 10 14 13q39 6 60.5 -7.5t25.5 -39.5q0 -5 1 -10q0 -36 -25 -85q-10 -18 -29 -20h-2q17 -77 17 -147q0 -51 -9 -97q-14 -74 -51 -106q-26 -24 -62 -24q-27 0 -59 13q-66 25 -96 111q-8 29 -8 66q0 53 26 69q20 12 44 4q12 -4 28 -20 l6 -4q-4 12 -9 42.5t-7 45.5q-10 2 -23 10h-2q-4 2 -12 8l-43 37q-12 10 -18 33q-4 18 -4 40.5zM881 666q0 -31 8 -54q25 -74 76 -94q24 -9 44 -9q26 0 44 15q29 25 39 88q8 43 8 90q0 66 -15 140q-6 0 -12 2q-2 -4 -4 -6q-8 -8 -33 -9q-6 0 -18 5q-2 2 -10 4q-8 -4 -19 -7 q-6 -2 -14 -2q-4 -6 -6 -10l-2 -2q4 -20 10 -55l8 -47q0 -2 2 -4l4 -11q4 -8 4 -14q0 -14 -14 -20q-18 -6 -37 8q-2 2 -20 22q-12 10 -18.5 12.5t-14.5 -1.5q-10 -6 -10 -41z" />
<glyph unicode="x" horiz-adv-x="935" d="M59 45l347 477l-173 264l-71 105q-47 70 -70 113q-14 23 9.5 36t35.5 -12q23 -41 68 -106q57 -80 74 -107l159 -248l213 310v10q6 18 17 26q4 4 12 7l80 116q16 23 37.5 7.5t7.5 -35.5l-80 -117q6 -10 12 -23q18 -35 33 -84q10 6 18 9q14 4 21 -13q6 -6 10 -20q16 6 31 6 q35 -4 53 -33q13 -19 13 -44q0 -9 -2 -19q-7 -36 -42 -64q-33 -28 -62 -28h-10q-32 6 -44 40q-6 16 -6 33q0 20 8 43q-2 -2 -4 -2q-10 0 -17 6q-6 4 -6 15h-2q0 2 -2 4q-10 16 2 35q4 6 14 14q-4 4 -6 8q-12 47 -28 80l-4 6l-23 -33q0 -18 2 -41q2 -16 -14.5 -18t-18.5 14v2 l-182 -264l338 -471q16 -23 -5.5 -38t-35.5 5q-182 242 -330 457q-186 -266 -336 -461q-16 -20 -36.5 -3.5t-4.5 36.5zM786 629q6 -16 19 -19q18 -2 47 21q25 20 30 45.5t-5 38.5q-10 16 -29 18q-12 0 -29 -8l-4 -4q-20 -18 -27.5 -46t-1.5 -46z" />
<glyph unicode="y" horiz-adv-x="868" d="M59 999q-6 27 21 33.5t33 -20.5q16 -70 41.5 -152t46.5 -139l61 -152q37 -96 53 -143q10 -25 52.5 -146.5t68.5 -183.5l96 232l86 213l95 241l84 219q10 25 34.5 15t14.5 -35l-88 -225l-94 -244l-89 -223q-59 -147 -102 -244l-100 -217q-57 -121 -115 -227 q-12 -25 -35.5 -11.5t-9.5 35.5q96 184 195 406q-27 53 -52 116l-49 144q-27 78 -41 115l-55 143l-59 151q-20 59 -50 144q-27 84 -43 155zM264 692q0 14 17 23q2 0 8 2l2 2q55 31 74 51q8 10 6 18q-2 4 -21 27q-20 23 -18 43q2 18 22 35q6 4 17.5 12t15.5 13q32 25 32 54 q0 4 -1 9q-2 12 10 16v2q0 14 15.5 15t17.5 -15q4 -63 28 -84q2 -2 9 -6q10 -6 12 -6q16 -12 22 -29q6 -12 -2 -32q-4 -10 -14 -29q-10 -23 -14 -29q-6 -14 -6 -18q0 -14 2 -18q0 -4 4 -7q23 -16 26 -36v-7v-2h-2v-4l-2 -4l-10 -14l-25 -47q-41 -68 -45 -78q-20 -41 -26 -98 q6 -4 10 -11q16 -20 16 -39q-2 -23 -24 -30h-2q-14 -16 -39 -6q-14 6 -29 20q-16 16 -18 35q-6 25 12 39q8 8 21 10q20 18 20 53v10q-4 49 -33 89q0 4 -12 12q-8 6 -29 18l-28 17q-6 4 -11 8l-4 4q-4 6 -4 12zM309 690l19 -12l30 -19q16 -12 23 -18q20 -31 31 -70 q8 40 8 79.5t-8 78.5q-2 16 13 19t19 -11q9 -46 9 -98v-10l8 14l24 47l9 15q0 2 -11.5 10t-15.5 18q-6 14 -4 33q0 12 10 31q2 8 14 30q10 18 13 27l4 8q-4 8 -12 12q0 2 -11 7q-8 6 -14 10q-16 14 -25 37q-12 -18 -34 -37l-19 -12q-10 -6 -14 -11q-10 -8 -10 -10 q0 -10 10 -22q23 -27 24 -33q12 -27 -10 -53q-20 -27 -80 -60z" />
<glyph unicode="z" horiz-adv-x="833" d="M8 76q49 68 154 176q113 123 153 172q72 88 199 256l184 242q-36 -1 -80 -1q-88 0 -208 3v-25q0 -12 -4 -49l-3 -27q16 -2 15 -18q8 -2 10 -9.5t-2 -15.5q41 -18 53 -55q10 -31 -6 -57.5t-53 -36.5q-12 -3 -23 -3q-25 0 -48 12q-34 17 -44 48q-3 11 -3 21q0 40 44 69 q-10 4 -14 10q-8 8 -6 18.5t12 14.5q8 4 22 4h11q0 10 2 29q4 33 4 47v23l-51 2q-6 -6 -15 -6q-6 0 -10 6q-111 2 -182 2q-27 0 -27 26.5t27 26.5q76 0 194 -2q6 8 15 14q14 16 32 17q20 2 37 -19q4 -6 6 -14q108 -2 193.5 -2t148.5 2h7q12 2 20 -6q20 -16 4 -37 q-74 -90 -211 -272l-209 -271q-43 -53 -155 -174q-86 -92 -119 -133q106 0 343 -2t361 -2q27 0 27 -26.5t-27 -26.5q-125 0 -377.5 2t-377.5 2q-12 0 -21 8q-18 17 -2 37zM338 698q2 -10 10 -18q12 18 12 46q0 10 -2 22q-29 -23 -20 -50zM360 977h5q-2 2 -5 2v-2zM377 664 q12 -4 22 -2v4q0 49 -4 90q-2 2 -6 2q2 -16 3 -31q-1 -37 -15 -63zM430 739q2 -31 2 -67q25 16 17 43q-7 14 -19 24z" />
<glyph unicode="{" horiz-adv-x="692" d="M-86 514q2 12 14 21q8 6 29 12q4 0 13.5 2t13.5 2q12 2 16 4q14 8 57 29l66 28q68 37 76 74q12 43 6 123q-8 104 -6 135q14 172 97 300t239 183q25 10 34 -15.5t-18 -33.5q-137 -51 -211 -164.5t-88 -273.5q-2 -31 6 -127q6 -88 -6 -139q-16 -59 -105 -107 q-25 -14 -67 -32q-41 -18 -53 -25q14 -4 26 -10q119 -49 156 -189q12 -53 14 -149q2 -102 10 -142q29 -160 146 -272.5t262 -85.5q10 2 19.5 -4t11.5 -17.5t-4 -20.5t-19 -11q-88 -14 -171 15.5t-142.5 91t-100 138t-55.5 158.5q-8 41 -10 150q-2 90 -14 137 q-29 113 -123 152q-29 12 -64 18h-8q-4 0 -8 1t-6 1q-6 0 -9.5 1t-7.5 3q-8 4 -12 12q-8 12 -4 27z" />
<glyph unicode="|" horiz-adv-x="225" d="M131 1260q0 68 4 106q2 25 6 41q8 25 21 35q23 14 39 -6q14 -21 -4 -37q-2 -2 -4 -6q-2 -12 -5 -33q-4 -37 -4 -100q0 -37 2 -111t2 -78q-10 -258 -2 -805q0 -43 11 -133q8 -90 8 -139q0 -27 -26.5 -27t-26.5 27q0 45 -9 133q-10 94 -10 139q-8 549 2 809q0 14 -2 74 q-2 74 -2 111z" />
<glyph unicode="}" horiz-adv-x="624" d="M-41 -364.5q0 26.5 27 26.5q164 0 241 88q74 84 97 154q23 72 18 155q-2 16 -5 57.5t-3 65t2 59t11 70.5t24 68q35 74 116 119q14 8 35 18h-4l-43 10q-137 39 -151 174q-6 57 0 183q6 131 2 184q-4 96 -39 163.5t-117 106.5q-55 29 -94 23q-12 -2 -20.5 5t-10.5 18.5 t5.5 19.5t17.5 10q57 6 127 -27q172 -84 184 -315q4 -57 -2 -190q-6 -123 0 -176q10 -98 112 -127q14 -4 39 -9q27 -6 35 -8q20 -6 30.5 -16t10.5 -22.5t-6 -22.5q-4 -10 -18 -17q-6 -4 -19 -10q-31 -12 -47 -22q-68 -35 -94 -93q-16 -37 -24.5 -79.5t-8.5 -64t3 -81 t5 -72.5q4 -92 -21.5 -174t-105.5 -174q-94 -104 -282 -104q-27 0 -27 26.5z" />
<glyph unicode="~" horiz-adv-x="1128" d="M33 291q39 139 140 223t241 61q47 -8 120.5 -41.5t106.5 -41.5q137 -35 252 22t164 184q10 25 34.5 15t14.5 -35q-57 -145 -189.5 -211t-287.5 -29q-39 10 -117 47q-68 31 -106 37q-117 18 -202 -52.5t-122 -195.5q-6 -25 -31.5 -17.5t-17.5 34.5z" />
<glyph unicode="&#xad;" d="M32 563.5q0 26.5 27 26.5q70 0 207 -8q135 -6 203 -7q27 0 27 -26.5t-27 -26.5q-70 0 -207 8q-135 6 -203 7q-27 0 -27 26.5z" />
<glyph unicode="&#x2000;" horiz-adv-x="829" />
<glyph unicode="&#x2001;" horiz-adv-x="1659" />
<glyph unicode="&#x2002;" horiz-adv-x="829" />
<glyph unicode="&#x2003;" horiz-adv-x="1659" />
<glyph unicode="&#x2004;" horiz-adv-x="553" />
<glyph unicode="&#x2005;" horiz-adv-x="414" />
<glyph unicode="&#x2006;" horiz-adv-x="276" />
<glyph unicode="&#x2007;" horiz-adv-x="276" />
<glyph unicode="&#x2008;" horiz-adv-x="207" />
<glyph unicode="&#x2009;" horiz-adv-x="331" />
<glyph unicode="&#x200a;" horiz-adv-x="92" />
<glyph unicode="&#x2010;" d="M32 563.5q0 26.5 27 26.5q70 0 207 -8q135 -6 203 -7q27 0 27 -26.5t-27 -26.5q-70 0 -207 8q-135 6 -203 7q-27 0 -27 26.5z" />
<glyph unicode="&#x2011;" d="M32 563.5q0 26.5 27 26.5q70 0 207 -8q135 -6 203 -7q27 0 27 -26.5t-27 -26.5q-70 0 -207 8q-135 6 -203 7q-27 0 -27 26.5z" />
<glyph unicode="&#x2012;" d="M32 563.5q0 26.5 27 26.5q70 0 207 -8q135 -6 203 -7q27 0 27 -26.5t-27 -26.5q-70 0 -207 8q-135 6 -203 7q-27 0 -27 26.5z" />
<glyph unicode="&#x2013;" horiz-adv-x="1076" d="M32 563.5q0 26.5 60 26.5q154 0 456 -8q298 -6 448 -7q60 0 60 -26.5t-60 -26.5q-154 0 -456 8q-298 6 -448 7q-60 0 -60 26.5z" />
<glyph unicode="&#x2014;" horiz-adv-x="2100" d="M32 563.5q0 26.5 119 26.5q309 0 914 -8q596 -6 896 -7q119 0 119 -26.5t-119 -26.5q-309 0 -914 8q-596 6 -896 7q-119 0 -119 26.5z" />
<glyph unicode="&#x2018;" horiz-adv-x="337" d="M147 1198q29 117 89 203q16 23 37.5 7t7.5 -36q-55 -80 -82 -186q-33 -127 18 -170q4 -2 27 -2h24q16 2 23 2q27 0 26.5 -26.5t-26.5 -26.5h-19q-18 -2 -28 -2q-41 0 -60 14q-78 63 -37 223z" />
<glyph unicode="&#x2019;" horiz-adv-x="337" d="M149 1403.5q17 19.5 35 3.5q10 -8 25 -16l24 -19q37 -27 54 -51q57 -84 10 -199q-29 -70 -104 -161q-16 -20 -37 -4t-4 36q74 90 96 150q35 88 -6 149q-10 16 -39 35l-25 19l-26 20q-20 18 -3 37.5z" />
<glyph unicode="&#x201c;" horiz-adv-x="579" d="M55 1065q2 55 25 129q43 147 100 211q18 18 37.5 0.5t3.5 -37.5q-49 -53 -90 -190q-20 -66 -22.5 -115t14.5 -70q6 -8 27 -10q10 -2 45 -2q27 0 26.5 -26.5t-26.5 -26.5q-39 0 -54 2q-39 6 -59 31q-29 35 -27 104zM340 1044q4 59 37 138q29 72 69 133q41 63 72 84 q23 14 37 -8.5t-8.5 -37t-57.5 -67.5q-35 -57 -63 -125q-29 -72 -33 -121q-4 -45 15 -57q6 -4 26 -4q8 2 41 6q10 2 19.5 -5t11.5 -17.5t-5 -19.5t-18 -11q-37 -4 -47 -6q-35 0 -57 12q-45 29 -39 106z" />
<glyph unicode="&#x201d;" horiz-adv-x="542" d="M41 987q59 78 98 174q23 59 26 100.5t-15 57.5q-8 8 -29 10h-25q-18 0 -28.5 2t-17.5 10.5t-5 19.5t10.5 18t20.5 5q6 -2 20 -2h27q41 -4 63 -22q37 -35 33 -103q-4 -49 -31 -114q-41 -104 -102 -189q-16 -20 -37.5 -4.5t-7.5 37.5zM332 1367q0 11 7 19.5t17 8.5 q111 8 150 -54q31 -49 10 -139q-14 -55 -53 -143q-47 -104 -49 -109q-8 -27 -34 -17.5t-15 34.5q0 2 49 112q37 84 49 135q16 68 -2 99q-23 35 -101 28q-12 0 -20 7.5t-8 18.5z" />
<glyph unicode="&#x202f;" horiz-adv-x="331" />
<glyph unicode="&#x205f;" horiz-adv-x="414" />
<glyph unicode="&#x25fc;" horiz-adv-x="1054" d="M0 0v1055h1055v-1055h-1055z" />
</font>
</defs>
</svg>
